o phone-jail-grid
v -0.100140000 0.001350000 -0.060000000
v -0.100140000 0.001350000 0.060000000
v -0.099860000 0.001350000 0.060000000
v -0.099860000 0.001350000 -0.060000000
v -0.090140000 0.001350000 -0.060000000
v -0.090140000 0.001350000 0.060000000
v -0.089860000 0.001350000 0.060000000
v -0.089860000 0.001350000 -0.060000000
v -0.080140000 0.001350000 -0.060000000
v -0.080140000 0.001350000 0.060000000
v -0.079860000 0.001350000 0.060000000
v -0.079860000 0.001350000 -0.060000000
v -0.070140000 0.001350000 -0.060000000
v -0.070140000 0.001350000 0.060000000
v -0.069860000 0.001350000 0.060000000
v -0.069860000 0.001350000 -0.060000000
v -0.060140000 0.001350000 -0.060000000
v -0.060140000 0.001350000 0.060000000
v -0.059860000 0.001350000 0.060000000
v -0.059860000 0.001350000 -0.060000000
v -0.050140000 0.001350000 -0.060000000
v -0.050140000 0.001350000 0.060000000
v -0.049860000 0.001350000 0.060000000
v -0.049860000 0.001350000 -0.060000000
v -0.040140000 0.001350000 -0.060000000
v -0.040140000 0.001350000 0.060000000
v -0.039860000 0.001350000 0.060000000
v -0.039860000 0.001350000 -0.060000000
v -0.030140000 0.001350000 -0.060000000
v -0.030140000 0.001350000 0.060000000
v -0.029860000 0.001350000 0.060000000
v -0.029860000 0.001350000 -0.060000000
v -0.020140000 0.001350000 -0.060000000
v -0.020140000 0.001350000 0.060000000
v -0.019860000 0.001350000 0.060000000
v -0.019860000 0.001350000 -0.060000000
v -0.010140000 0.001350000 -0.060000000
v -0.010140000 0.001350000 0.060000000
v -0.009860000 0.001350000 0.060000000
v -0.009860000 0.001350000 -0.060000000
v -0.000140000 0.001350000 -0.060000000
v -0.000140000 0.001350000 0.060000000
v 0.000140000 0.001350000 0.060000000
v 0.000140000 0.001350000 -0.060000000
v 0.009860000 0.001350000 -0.060000000
v 0.009860000 0.001350000 0.060000000
v 0.010140000 0.001350000 0.060000000
v 0.010140000 0.001350000 -0.060000000
v 0.019860000 0.001350000 -0.060000000
v 0.019860000 0.001350000 0.060000000
v 0.020140000 0.001350000 0.060000000
v 0.020140000 0.001350000 -0.060000000
v 0.029860000 0.001350000 -0.060000000
v 0.029860000 0.001350000 0.060000000
v 0.030140000 0.001350000 0.060000000
v 0.030140000 0.001350000 -0.060000000
v 0.039860000 0.001350000 -0.060000000
v 0.039860000 0.001350000 0.060000000
v 0.040140000 0.001350000 0.060000000
v 0.040140000 0.001350000 -0.060000000
v 0.049860000 0.001350000 -0.060000000
v 0.049860000 0.001350000 0.060000000
v 0.050140000 0.001350000 0.060000000
v 0.050140000 0.001350000 -0.060000000
v 0.059860000 0.001350000 -0.060000000
v 0.059860000 0.001350000 0.060000000
v 0.060140000 0.001350000 0.060000000
v 0.060140000 0.001350000 -0.060000000
v 0.069860000 0.001350000 -0.060000000
v 0.069860000 0.001350000 0.060000000
v 0.070140000 0.001350000 0.060000000
v 0.070140000 0.001350000 -0.060000000
v 0.079860000 0.001350000 -0.060000000
v 0.079860000 0.001350000 0.060000000
v 0.080140000 0.001350000 0.060000000
v 0.080140000 0.001350000 -0.060000000
v 0.089860000 0.001350000 -0.060000000
v 0.089860000 0.001350000 0.060000000
v 0.090140000 0.001350000 0.060000000
v 0.090140000 0.001350000 -0.060000000
v 0.099860000 0.001350000 -0.060000000
v 0.099860000 0.001350000 0.060000000
v 0.100140000 0.001350000 0.060000000
v 0.100140000 0.001350000 -0.060000000
v -0.100000000 0.001370000 -0.060140000
v 0.100000000 0.001370000 -0.060140000
v 0.100000000 0.001370000 -0.059860000
v -0.100000000 0.001370000 -0.059860000
v -0.100000000 0.001370000 -0.050140000
v 0.100000000 0.001370000 -0.050140000
v 0.100000000 0.001370000 -0.049860000
v -0.100000000 0.001370000 -0.049860000
v -0.100000000 0.001370000 -0.040140000
v 0.100000000 0.001370000 -0.040140000
v 0.100000000 0.001370000 -0.039860000
v -0.100000000 0.001370000 -0.039860000
v -0.100000000 0.001370000 -0.030140000
v 0.100000000 0.001370000 -0.030140000
v 0.100000000 0.001370000 -0.029860000
v -0.100000000 0.001370000 -0.029860000
v -0.100000000 0.001370000 -0.020140000
v 0.100000000 0.001370000 -0.020140000
v 0.100000000 0.001370000 -0.019860000
v -0.100000000 0.001370000 -0.019860000
v -0.100000000 0.001370000 -0.010140000
v 0.100000000 0.001370000 -0.010140000
v 0.100000000 0.001370000 -0.009860000
v -0.100000000 0.001370000 -0.009860000
v -0.100000000 0.001370000 -0.000140000
v 0.100000000 0.001370000 -0.000140000
v 0.100000000 0.001370000 0.000140000
v -0.100000000 0.001370000 0.000140000
v -0.100000000 0.001370000 0.009860000
v 0.100000000 0.001370000 0.009860000
v 0.100000000 0.001370000 0.010140000
v -0.100000000 0.001370000 0.010140000
v -0.100000000 0.001370000 0.019860000
v 0.100000000 0.001370000 0.019860000
v 0.100000000 0.001370000 0.020140000
v -0.100000000 0.001370000 0.020140000
v -0.100000000 0.001370000 0.029860000
v 0.100000000 0.001370000 0.029860000
v 0.100000000 0.001370000 0.030140000
v -0.100000000 0.001370000 0.030140000
v -0.100000000 0.001370000 0.039860000
v 0.100000000 0.001370000 0.039860000
v 0.100000000 0.001370000 0.040140000
v -0.100000000 0.001370000 0.040140000
v -0.100000000 0.001370000 0.049860000
v 0.100000000 0.001370000 0.049860000
v 0.100000000 0.001370000 0.050140000
v -0.100000000 0.001370000 0.050140000
v -0.100000000 0.001370000 0.059860000
v 0.100000000 0.001370000 0.059860000
v 0.100000000 0.001370000 0.060140000
v -0.100000000 0.001370000 0.060140000
v 0.105000000 0.001400000 0.059700107
v 0.104912132 0.001612132 0.059700076
v 0.104867542 0.001612132 0.060380320
v 0.104954658 0.001400000 0.060391789
v 0.104700000 0.001700000 0.059700000
v 0.104657224 0.001700000 0.060352631
v 0.104487868 0.001612132 0.059699924
v 0.104446907 0.001612132 0.060324942
v 0.104400000 0.001400000 0.059699893
v 0.104359791 0.001400000 0.060313473
v 0.104487868 0.001187868 0.059699924
v 0.104446907 0.001187868 0.060324942
v 0.104700000 0.001100000 0.059700000
v 0.104657224 0.001100000 0.060352631
v 0.104912132 0.001187868 0.059700076
v 0.104867542 0.001187868 0.060380320
v 0.104734533 0.001612132 0.061048999
v 0.104819407 0.001400000 0.061071741
v 0.104529629 0.001700000 0.060994095
v 0.104324725 0.001612132 0.060939191
v 0.104239851 0.001400000 0.060916450
v 0.104324725 0.001187868 0.060939191
v 0.104529629 0.001100000 0.060994095
v 0.104734533 0.001187868 0.061048999
v 0.104515382 0.001612132 0.061694597
v 0.104596562 0.001400000 0.061728222
v 0.104319398 0.001700000 0.061613417
v 0.104123413 0.001612132 0.061532238
v 0.104042234 0.001400000 0.061498612
v 0.104123413 0.001187868 0.061532238
v 0.104319398 0.001100000 0.061613417
v 0.104515382 0.001187868 0.061694597
v 0.104213839 0.001612132 0.062306066
v 0.104289935 0.001400000 0.062350000
v 0.104030127 0.001700000 0.062200000
v 0.103846415 0.001612132 0.062093934
v 0.103770319 0.001400000 0.062050000
v 0.103846415 0.001187868 0.062093934
v 0.104030127 0.001100000 0.062200000
v 0.104213839 0.001187868 0.062306066
v 0.103835062 0.001612132 0.062872945
v 0.103904773 0.001400000 0.062926436
v 0.103666767 0.001700000 0.062743807
v 0.103498471 0.001612132 0.062614669
v 0.103428761 0.001400000 0.062561179
v 0.103498471 0.001187868 0.062614669
v 0.103666767 0.001100000 0.062743807
v 0.103835062 0.001187868 0.062872945
v 0.103385534 0.001612132 0.063385534
v 0.103447666 0.001400000 0.063447666
v 0.103235534 0.001700000 0.063235534
v 0.103085534 0.001612132 0.063085534
v 0.103023402 0.001400000 0.063023402
v 0.103085534 0.001187868 0.063085534
v 0.103235534 0.001100000 0.063235534
v 0.103385534 0.001187868 0.063385534
v 0.102872945 0.001612132 0.063835062
v 0.102926436 0.001400000 0.063904773
v 0.102743807 0.001700000 0.063666767
v 0.102614669 0.001612132 0.063498471
v 0.102561179 0.001400000 0.063428761
v 0.102614669 0.001187868 0.063498471
v 0.102743807 0.001100000 0.063666767
v 0.102872945 0.001187868 0.063835062
v 0.102306066 0.001612132 0.064213839
v 0.102350000 0.001400000 0.064289935
v 0.102200000 0.001700000 0.064030127
v 0.102093934 0.001612132 0.063846415
v 0.102050000 0.001400000 0.063770319
v 0.102093934 0.001187868 0.063846415
v 0.102200000 0.001100000 0.064030127
v 0.102306066 0.001187868 0.064213839
v 0.101694597 0.001612132 0.064515382
v 0.101728222 0.001400000 0.064596562
v 0.101613417 0.001700000 0.064319398
v 0.101532238 0.001612132 0.064123413
v 0.101498612 0.001400000 0.064042234
v 0.101532238 0.001187868 0.064123413
v 0.101613417 0.001100000 0.064319398
v 0.101694597 0.001187868 0.064515382
v 0.101048999 0.001612132 0.064734533
v 0.101071741 0.001400000 0.064819407
v 0.100994095 0.001700000 0.064529629
v 0.100939191 0.001612132 0.064324725
v 0.100916450 0.001400000 0.064239851
v 0.100939191 0.001187868 0.064324725
v 0.100994095 0.001100000 0.064529629
v 0.101048999 0.001187868 0.064734533
v 0.100380320 0.001612132 0.064867542
v 0.100391789 0.001400000 0.064954658
v 0.100352631 0.001700000 0.064657224
v 0.100324942 0.001612132 0.064446907
v 0.100313473 0.001400000 0.064359791
v 0.100324942 0.001187868 0.064446907
v 0.100352631 0.001100000 0.064657224
v 0.100380320 0.001187868 0.064867542
v 0.099700045 0.001612132 0.064912132
v 0.099700064 0.001400000 0.065000000
v 0.099700000 0.001700000 0.064700000
v 0.099699955 0.001612132 0.064487868
v 0.099699936 0.001400000 0.064400000
v 0.099699955 0.001187868 0.064487868
v 0.099700000 0.001100000 0.064700000
v 0.099700045 0.001187868 0.064912132
v -0.099700045 0.001612132 0.064912132
v -0.099700064 0.001400000 0.065000000
v -0.099700000 0.001700000 0.064700000
v -0.099699955 0.001612132 0.064487868
v -0.099699936 0.001400000 0.064400000
v -0.099699955 0.001187868 0.064487868
v -0.099700000 0.001100000 0.064700000
v -0.099700045 0.001187868 0.064912132
v -0.100380320 0.001612132 0.064867542
v -0.100391789 0.001400000 0.064954658
v -0.100352631 0.001700000 0.064657224
v -0.100324942 0.001612132 0.064446907
v -0.100313473 0.001400000 0.064359791
v -0.100324942 0.001187868 0.064446907
v -0.100352631 0.001100000 0.064657224
v -0.100380320 0.001187868 0.064867542
v -0.101048999 0.001612132 0.064734533
v -0.101071741 0.001400000 0.064819407
v -0.100994095 0.001700000 0.064529629
v -0.100939191 0.001612132 0.064324725
v -0.100916450 0.001400000 0.064239851
v -0.100939191 0.001187868 0.064324725
v -0.100994095 0.001100000 0.064529629
v -0.101048999 0.001187868 0.064734533
v -0.101694597 0.001612132 0.064515382
v -0.101728222 0.001400000 0.064596562
v -0.101613417 0.001700000 0.064319398
v -0.101532238 0.001612132 0.064123413
v -0.101498612 0.001400000 0.064042234
v -0.101532238 0.001187868 0.064123413
v -0.101613417 0.001100000 0.064319398
v -0.101694597 0.001187868 0.064515382
v -0.102306066 0.001612132 0.064213839
v -0.102350000 0.001400000 0.064289935
v -0.102200000 0.001700000 0.064030127
v -0.102093934 0.001612132 0.063846415
v -0.102050000 0.001400000 0.063770319
v -0.102093934 0.001187868 0.063846415
v -0.102200000 0.001100000 0.064030127
v -0.102306066 0.001187868 0.064213839
v -0.102872945 0.001612132 0.063835062
v -0.102926436 0.001400000 0.063904773
v -0.102743807 0.001700000 0.063666767
v -0.102614669 0.001612132 0.063498471
v -0.102561179 0.001400000 0.063428761
v -0.102614669 0.001187868 0.063498471
v -0.102743807 0.001100000 0.063666767
v -0.102872945 0.001187868 0.063835062
v -0.103385534 0.001612132 0.063385534
v -0.103447666 0.001400000 0.063447666
v -0.103235534 0.001700000 0.063235534
v -0.103085534 0.001612132 0.063085534
v -0.103023402 0.001400000 0.063023402
v -0.103085534 0.001187868 0.063085534
v -0.103235534 0.001100000 0.063235534
v -0.103385534 0.001187868 0.063385534
v -0.103835062 0.001612132 0.062872945
v -0.103904773 0.001400000 0.062926436
v -0.103666767 0.001700000 0.062743807
v -0.103498471 0.001612132 0.062614669
v -0.103428761 0.001400000 0.062561179
v -0.103498471 0.001187868 0.062614669
v -0.103666767 0.001100000 0.062743807
v -0.103835062 0.001187868 0.062872945
v -0.104213839 0.001612132 0.062306066
v -0.104289935 0.001400000 0.062350000
v -0.104030127 0.001700000 0.062200000
v -0.103846415 0.001612132 0.062093934
v -0.103770319 0.001400000 0.062050000
v -0.103846415 0.001187868 0.062093934
v -0.104030127 0.001100000 0.062200000
v -0.104213839 0.001187868 0.062306066
v -0.104515382 0.001612132 0.061694597
v -0.104596562 0.001400000 0.061728222
v -0.104319398 0.001700000 0.061613417
v -0.104123413 0.001612132 0.061532238
v -0.104042234 0.001400000 0.061498612
v -0.104123413 0.001187868 0.061532238
v -0.104319398 0.001100000 0.061613417
v -0.104515382 0.001187868 0.061694597
v -0.104734533 0.001612132 0.061048999
v -0.104819407 0.001400000 0.061071741
v -0.104529629 0.001700000 0.060994095
v -0.104324725 0.001612132 0.060939191
v -0.104239851 0.001400000 0.060916450
v -0.104324725 0.001187868 0.060939191
v -0.104529629 0.001100000 0.060994095
v -0.104734533 0.001187868 0.061048999
v -0.104867542 0.001612132 0.060380320
v -0.104954658 0.001400000 0.060391789
v -0.104657224 0.001700000 0.060352631
v -0.104446907 0.001612132 0.060324942
v -0.104359791 0.001400000 0.060313473
v -0.104446907 0.001187868 0.060324942
v -0.104657224 0.001100000 0.060352631
v -0.104867542 0.001187868 0.060380320
v -0.104912132 0.001612132 0.059700076
v -0.105000000 0.001400000 0.059700107
v -0.104700000 0.001700000 0.059700000
v -0.104487868 0.001612132 0.059699924
v -0.104400000 0.001400000 0.059699893
v -0.104487868 0.001187868 0.059699924
v -0.104700000 0.001100000 0.059700000
v -0.104912132 0.001187868 0.059700076
v -0.104912132 0.001612132 -0.059700076
v -0.105000000 0.001400000 -0.059700107
v -0.104700000 0.001700000 -0.059700000
v -0.104487868 0.001612132 -0.059699924
v -0.104400000 0.001400000 -0.059699893
v -0.104487868 0.001187868 -0.059699924
v -0.104700000 0.001100000 -0.059700000
v -0.104912132 0.001187868 -0.059700076
v -0.104867542 0.001612132 -0.060380320
v -0.104954658 0.001400000 -0.060391789
v -0.104657224 0.001700000 -0.060352631
v -0.104446907 0.001612132 -0.060324942
v -0.104359791 0.001400000 -0.060313473
v -0.104446907 0.001187868 -0.060324942
v -0.104657224 0.001100000 -0.060352631
v -0.104867542 0.001187868 -0.060380320
v -0.104734533 0.001612132 -0.061048999
v -0.104819407 0.001400000 -0.061071741
v -0.104529629 0.001700000 -0.060994095
v -0.104324725 0.001612132 -0.060939191
v -0.104239851 0.001400000 -0.060916450
v -0.104324725 0.001187868 -0.060939191
v -0.104529629 0.001100000 -0.060994095
v -0.104734533 0.001187868 -0.061048999
v -0.104515382 0.001612132 -0.061694597
v -0.104596562 0.001400000 -0.061728222
v -0.104319398 0.001700000 -0.061613417
v -0.104123413 0.001612132 -0.061532238
v -0.104042234 0.001400000 -0.061498612
v -0.104123413 0.001187868 -0.061532238
v -0.104319398 0.001100000 -0.061613417
v -0.104515382 0.001187868 -0.061694597
v -0.104213839 0.001612132 -0.062306066
v -0.104289935 0.001400000 -0.062350000
v -0.104030127 0.001700000 -0.062200000
v -0.103846415 0.001612132 -0.062093934
v -0.103770319 0.001400000 -0.062050000
v -0.103846415 0.001187868 -0.062093934
v -0.104030127 0.001100000 -0.062200000
v -0.104213839 0.001187868 -0.062306066
v -0.103835062 0.001612132 -0.062872945
v -0.103904773 0.001400000 -0.062926436
v -0.103666767 0.001700000 -0.062743807
v -0.103498471 0.001612132 -0.062614669
v -0.103428761 0.001400000 -0.062561179
v -0.103498471 0.001187868 -0.062614669
v -0.103666767 0.001100000 -0.062743807
v -0.103835062 0.001187868 -0.062872945
v -0.103385534 0.001612132 -0.063385534
v -0.103447666 0.001400000 -0.063447666
v -0.103235534 0.001700000 -0.063235534
v -0.103085534 0.001612132 -0.063085534
v -0.103023402 0.001400000 -0.063023402
v -0.103085534 0.001187868 -0.063085534
v -0.103235534 0.001100000 -0.063235534
v -0.103385534 0.001187868 -0.063385534
v -0.102872945 0.001612132 -0.063835062
v -0.102926436 0.001400000 -0.063904773
v -0.102743807 0.001700000 -0.063666767
v -0.102614669 0.001612132 -0.063498471
v -0.102561179 0.001400000 -0.063428761
v -0.102614669 0.001187868 -0.063498471
v -0.102743807 0.001100000 -0.063666767
v -0.102872945 0.001187868 -0.063835062
v -0.102306066 0.001612132 -0.064213839
v -0.102350000 0.001400000 -0.064289935
v -0.102200000 0.001700000 -0.064030127
v -0.102093934 0.001612132 -0.063846415
v -0.102050000 0.001400000 -0.063770319
v -0.102093934 0.001187868 -0.063846415
v -0.102200000 0.001100000 -0.064030127
v -0.102306066 0.001187868 -0.064213839
v -0.101694597 0.001612132 -0.064515382
v -0.101728222 0.001400000 -0.064596562
v -0.101613417 0.001700000 -0.064319398
v -0.101532238 0.001612132 -0.064123413
v -0.101498612 0.001400000 -0.064042234
v -0.101532238 0.001187868 -0.064123413
v -0.101613417 0.001100000 -0.064319398
v -0.101694597 0.001187868 -0.064515382
v -0.101048999 0.001612132 -0.064734533
v -0.101071741 0.001400000 -0.064819407
v -0.100994095 0.001700000 -0.064529629
v -0.100939191 0.001612132 -0.064324725
v -0.100916450 0.001400000 -0.064239851
v -0.100939191 0.001187868 -0.064324725
v -0.100994095 0.001100000 -0.064529629
v -0.101048999 0.001187868 -0.064734533
v -0.100380320 0.001612132 -0.064867542
v -0.100391789 0.001400000 -0.064954658
v -0.100352631 0.001700000 -0.064657224
v -0.100324942 0.001612132 -0.064446907
v -0.100313473 0.001400000 -0.064359791
v -0.100324942 0.001187868 -0.064446907
v -0.100352631 0.001100000 -0.064657224
v -0.100380320 0.001187868 -0.064867542
v -0.099700045 0.001612132 -0.064912132
v -0.099700064 0.001400000 -0.065000000
v -0.099700000 0.001700000 -0.064700000
v -0.099699955 0.001612132 -0.064487868
v -0.099699936 0.001400000 -0.064400000
v -0.099699955 0.001187868 -0.064487868
v -0.099700000 0.001100000 -0.064700000
v -0.099700045 0.001187868 -0.064912132
v 0.099700045 0.001612132 -0.064912132
v 0.099700064 0.001400000 -0.065000000
v 0.099700000 0.001700000 -0.064700000
v 0.099699955 0.001612132 -0.064487868
v 0.099699936 0.001400000 -0.064400000
v 0.099699955 0.001187868 -0.064487868
v 0.099700000 0.001100000 -0.064700000
v 0.099700045 0.001187868 -0.064912132
v 0.100380320 0.001612132 -0.064867542
v 0.100391789 0.001400000 -0.064954658
v 0.100352631 0.001700000 -0.064657224
v 0.100324942 0.001612132 -0.064446907
v 0.100313473 0.001400000 -0.064359791
v 0.100324942 0.001187868 -0.064446907
v 0.100352631 0.001100000 -0.064657224
v 0.100380320 0.001187868 -0.064867542
v 0.101048999 0.001612132 -0.064734533
v 0.101071741 0.001400000 -0.064819407
v 0.100994095 0.001700000 -0.064529629
v 0.100939191 0.001612132 -0.064324725
v 0.100916450 0.001400000 -0.064239851
v 0.100939191 0.001187868 -0.064324725
v 0.100994095 0.001100000 -0.064529629
v 0.101048999 0.001187868 -0.064734533
v 0.101694597 0.001612132 -0.064515382
v 0.101728222 0.001400000 -0.064596562
v 0.101613417 0.001700000 -0.064319398
v 0.101532238 0.001612132 -0.064123413
v 0.101498612 0.001400000 -0.064042234
v 0.101532238 0.001187868 -0.064123413
v 0.101613417 0.001100000 -0.064319398
v 0.101694597 0.001187868 -0.064515382
v 0.102306066 0.001612132 -0.064213839
v 0.102350000 0.001400000 -0.064289935
v 0.102200000 0.001700000 -0.064030127
v 0.102093934 0.001612132 -0.063846415
v 0.102050000 0.001400000 -0.063770319
v 0.102093934 0.001187868 -0.063846415
v 0.102200000 0.001100000 -0.064030127
v 0.102306066 0.001187868 -0.064213839
v 0.102872945 0.001612132 -0.063835062
v 0.102926436 0.001400000 -0.063904773
v 0.102743807 0.001700000 -0.063666767
v 0.102614669 0.001612132 -0.063498471
v 0.102561179 0.001400000 -0.063428761
v 0.102614669 0.001187868 -0.063498471
v 0.102743807 0.001100000 -0.063666767
v 0.102872945 0.001187868 -0.063835062
v 0.103385534 0.001612132 -0.063385534
v 0.103447666 0.001400000 -0.063447666
v 0.103235534 0.001700000 -0.063235534
v 0.103085534 0.001612132 -0.063085534
v 0.103023402 0.001400000 -0.063023402
v 0.103085534 0.001187868 -0.063085534
v 0.103235534 0.001100000 -0.063235534
v 0.103385534 0.001187868 -0.063385534
v 0.103835062 0.001612132 -0.062872945
v 0.103904773 0.001400000 -0.062926436
v 0.103666767 0.001700000 -0.062743807
v 0.103498471 0.001612132 -0.062614669
v 0.103428761 0.001400000 -0.062561179
v 0.103498471 0.001187868 -0.062614669
v 0.103666767 0.001100000 -0.062743807
v 0.103835062 0.001187868 -0.062872945
v 0.104213839 0.001612132 -0.062306066
v 0.104289935 0.001400000 -0.062350000
v 0.104030127 0.001700000 -0.062200000
v 0.103846415 0.001612132 -0.062093934
v 0.103770319 0.001400000 -0.062050000
v 0.103846415 0.001187868 -0.062093934
v 0.104030127 0.001100000 -0.062200000
v 0.104213839 0.001187868 -0.062306066
v 0.104515382 0.001612132 -0.061694597
v 0.104596562 0.001400000 -0.061728222
v 0.104319398 0.001700000 -0.061613417
v 0.104123413 0.001612132 -0.061532238
v 0.104042234 0.001400000 -0.061498612
v 0.104123413 0.001187868 -0.061532238
v 0.104319398 0.001100000 -0.061613417
v 0.104515382 0.001187868 -0.061694597
v 0.104734533 0.001612132 -0.061048999
v 0.104819407 0.001400000 -0.061071741
v 0.104529629 0.001700000 -0.060994095
v 0.104324725 0.001612132 -0.060939191
v 0.104239851 0.001400000 -0.060916450
v 0.104324725 0.001187868 -0.060939191
v 0.104529629 0.001100000 -0.060994095
v 0.104734533 0.001187868 -0.061048999
v 0.104867542 0.001612132 -0.060380320
v 0.104954658 0.001400000 -0.060391789
v 0.104657224 0.001700000 -0.060352631
v 0.104446907 0.001612132 -0.060324942
v 0.104359791 0.001400000 -0.060313473
v 0.104446907 0.001187868 -0.060324942
v 0.104657224 0.001100000 -0.060352631
v 0.104867542 0.001187868 -0.060380320
v 0.104912132 0.001612132 -0.059700076
v 0.105000000 0.001400000 -0.059700107
v 0.104700000 0.001700000 -0.059700000
v 0.104487868 0.001612132 -0.059699924
v 0.104400000 0.001400000 -0.059699893
v 0.104487868 0.001187868 -0.059699924
v 0.104700000 0.001100000 -0.059700000
v 0.104912132 0.001187868 -0.059700076
v -0.101000000 0.001800000 -0.045325000
v -0.108000000 0.001800000 -0.045325000
v -0.108000000 0.001800000 -0.044675000
v -0.101000000 0.001800000 -0.044675000
v -0.101000000 0.001800000 -0.015325000
v -0.108000000 0.001800000 -0.015325000
v -0.108000000 0.001800000 -0.014675000
v -0.101000000 0.001800000 -0.014675000
v -0.101000000 0.001800000 0.014675000
v -0.108000000 0.001800000 0.014675000
v -0.108000000 0.001800000 0.015325000
v -0.101000000 0.001800000 0.015325000
v -0.101000000 0.001800000 0.044675000
v -0.108000000 0.001800000 0.044675000
v -0.108000000 0.001800000 0.045325000
v -0.101000000 0.001800000 0.045325000
v 0.101000000 0.001800000 -0.045325000
v 0.108000000 0.001800000 -0.045325000
v 0.108000000 0.001800000 -0.044675000
v 0.101000000 0.001800000 -0.044675000
v 0.101000000 0.001800000 -0.015325000
v 0.108000000 0.001800000 -0.015325000
v 0.108000000 0.001800000 -0.014675000
v 0.101000000 0.001800000 -0.014675000
v 0.101000000 0.001800000 0.014675000
v 0.108000000 0.001800000 0.014675000
v 0.108000000 0.001800000 0.015325000
v 0.101000000 0.001800000 0.015325000
v 0.101000000 0.001800000 0.044675000
v 0.108000000 0.001800000 0.044675000
v 0.108000000 0.001800000 0.045325000
v 0.101000000 0.001800000 0.045325000
vt 0.000000000 0.000000000
vt 0.000000000 1.000000000
vt 1.000000000 1.000000000
vt 1.000000000 0.000000000
vn 0.000000000 1.000000000 0.000000000
vn 0.000000000 -1.000000000 0.000000000
vn 0.922186820 0.381991185 0.060450015
vn 0.922189630 0.381983956 0.060452817
vn 0.382555511 0.923592213 0.025074013
vn 0.382562775 0.923589115 0.025077268
vn -0.382555541 0.923592282 -0.025070991
vn -0.382563111 0.923589051 -0.025074511
vn -0.922187779 0.381991580 -0.060432879
vn -0.922190872 0.381983572 -0.060436293
vn -0.922187600 -0.381991506 -0.060436079
vn -0.922191112 -0.381983498 -0.060433098
vn -0.382555511 -0.923592213 -0.025074013
vn -0.382563477 -0.923588981 -0.025071511
vn 0.382555483 -0.923592149 0.025076790
vn 0.382563111 -0.923589051 0.025074511
vn 0.922186673 -0.381991125 0.060452623
vn 0.922189826 -0.381983895 0.060450212
vn 0.906411395 0.381983741 0.180296436
vn 0.376017350 0.923589051 0.074794501
vn -0.376017350 0.923589051 -0.074794501
vn -0.906411395 0.381983741 -0.180296436
vn -0.906411395 -0.381983741 -0.180296436
vn -0.376017350 -0.923589051 -0.074794501
vn 0.376017350 -0.923589051 0.074794501
vn 0.906411395 -0.381983741 0.180296436
vn 0.875123513 0.381983741 0.297064403
vn 0.363037828 0.923589051 0.123234737
vn -0.363037828 0.923589051 -0.123234737
vn -0.875123513 0.381983741 -0.297064403
vn -0.875123513 -0.381983741 -0.297064403
vn -0.363037828 -0.923589051 -0.123234737
vn 0.363037828 -0.923589051 0.123234737
vn 0.875123513 -0.381983741 0.297064403
vn 0.828862024 0.381983741 0.408749516
vn 0.343846628 0.923589051 0.169566392
vn -0.343846628 0.923589051 -0.169566392
vn -0.828862024 0.381983741 -0.408749516
vn -0.828862024 -0.381983741 -0.408749516
vn -0.343846628 -0.923589051 -0.169566392
vn 0.343846628 -0.923589051 0.169566392
vn 0.828862024 -0.381983741 0.408749516
vn 0.768418477 0.381983741 0.513440811
vn 0.318772117 0.923589051 0.212996719
vn -0.318772117 0.923589051 -0.212996719
vn -0.768418477 0.381983741 -0.513440811
vn -0.768418477 -0.381983741 -0.513440811
vn -0.318772117 -0.923589051 -0.212996719
vn 0.318772117 -0.923589051 0.212996719
vn 0.768418477 -0.381983741 0.513440811
vn 0.694827076 0.381983741 0.609346992
vn 0.288243327 0.923589051 0.252782613
vn -0.288243327 0.923589051 -0.252782613
vn -0.694827076 0.381983741 -0.609346992
vn -0.694827076 -0.381983741 -0.609346992
vn -0.288243327 -0.923589051 -0.252782613
vn 0.288243327 -0.923589051 0.252782613
vn 0.694827076 -0.381983741 0.609346992
vn 0.609346992 0.381983741 0.694827076
vn 0.252782613 0.923589051 0.288243327
vn -0.252782613 0.923589051 -0.288243327
vn -0.609346992 0.381983741 -0.694827076
vn -0.609346992 -0.381983741 -0.694827076
vn -0.252782613 -0.923589051 -0.288243327
vn 0.252782613 -0.923589051 0.288243327
vn 0.609346992 -0.381983741 0.694827076
vn 0.513440811 0.381983741 0.768418477
vn 0.212996719 0.923589051 0.318772117
vn -0.212996719 0.923589051 -0.318772117
vn -0.513440811 0.381983741 -0.768418477
vn -0.513440811 -0.381983741 -0.768418477
vn -0.212996719 -0.923589051 -0.318772117
vn 0.212996719 -0.923589051 0.318772117
vn 0.513440811 -0.381983741 0.768418477
vn 0.408749516 0.381983741 0.828862024
vn 0.169566392 0.923589051 0.343846628
vn -0.169566392 0.923589051 -0.343846628
vn -0.408749516 0.381983741 -0.828862024
vn -0.408749516 -0.381983741 -0.828862024
vn -0.169566392 -0.923589051 -0.343846628
vn 0.169566392 -0.923589051 0.343846628
vn 0.408749516 -0.381983741 0.828862024
vn 0.297064403 0.381983741 0.875123513
vn 0.123234737 0.923589051 0.363037828
vn -0.123234737 0.923589051 -0.363037828
vn -0.297064403 0.381983741 -0.875123513
vn -0.297064403 -0.381983741 -0.875123513
vn -0.123234737 -0.923589051 -0.363037828
vn 0.123234737 -0.923589051 0.363037828
vn 0.297064403 -0.381983741 0.875123513
vn 0.180296436 0.381983741 0.906411395
vn 0.074794501 0.923589051 0.376017350
vn -0.074794501 0.923589051 -0.376017350
vn -0.180296436 0.381983741 -0.906411395
vn -0.180296436 -0.381983741 -0.906411395
vn -0.074794501 -0.923589051 -0.376017350
vn 0.074794501 -0.923589051 0.376017350
vn 0.180296436 -0.381983741 0.906411395
vn 0.060447551 0.381983833 0.922190026
vn 0.060449000 0.381988177 0.922188132
vn 0.025074511 0.923589051 0.382563111
vn 0.025075880 0.923590912 0.382558529
vn -0.025072709 0.923589009 -0.382563331
vn -0.025074212 0.923590950 -0.382558545
vn -0.060437269 0.381983595 -0.922190799
vn -0.060439060 0.381988406 -0.922188689
vn -0.060439189 -0.381983639 -0.922190655
vn -0.060437138 -0.381988451 -0.922188796
vn -0.025074511 -0.923589051 -0.382563111
vn -0.025072396 -0.923590992 -0.382558563
vn 0.025076167 -0.923589090 0.382562909
vn 0.025074212 -0.923590950 0.382558545
vn 0.060449116 -0.381983870 0.922189909
vn 0.060447433 -0.381988213 0.922188220
vn 0.000000000 0.382683425 0.923879536
vn 0.000000000 0.923879529 0.382683440
vn 0.000000000 0.923879529 -0.382683440
vn 0.000000000 0.382683425 -0.923879536
vn 0.000000000 -0.382683425 -0.923879536
vn 0.000000000 -0.923879529 -0.382683440
vn 0.000000000 -0.923879529 0.382683440
vn 0.000000000 -0.382683425 0.923879536
vn -0.060447433 0.381988213 0.922188220
vn -0.060449116 0.381983870 0.922189909
vn -0.025074212 0.923590950 0.382558545
vn -0.025076167 0.923589090 0.382562909
vn 0.025072396 0.923590992 -0.382558563
vn 0.025074511 0.923589051 -0.382563111
vn 0.060437138 0.381988451 -0.922188796
vn 0.060439189 0.381983639 -0.922190655
vn 0.060439060 -0.381988406 -0.922188689
vn 0.060437269 -0.381983595 -0.922190799
vn 0.025074212 -0.923590950 -0.382558545
vn 0.025072709 -0.923589009 -0.382563331
vn -0.025075880 -0.923590912 0.382558529
vn -0.025074511 -0.923589051 0.382563111
vn -0.060449000 -0.381988177 0.922188132
vn -0.060447551 -0.381983833 0.922190026
vn -0.180296436 0.381983741 0.906411395
vn -0.074794501 0.923589051 0.376017350
vn 0.074794501 0.923589051 -0.376017350
vn 0.180296436 0.381983741 -0.906411395
vn 0.180296436 -0.381983741 -0.906411395
vn 0.074794501 -0.923589051 -0.376017350
vn -0.074794501 -0.923589051 0.376017350
vn -0.180296436 -0.381983741 0.906411395
vn -0.297064403 0.381983741 0.875123513
vn -0.123234737 0.923589051 0.363037828
vn 0.123234737 0.923589051 -0.363037828
vn 0.297064403 0.381983741 -0.875123513
vn 0.297064403 -0.381983741 -0.875123513
vn 0.123234737 -0.923589051 -0.363037828
vn -0.123234737 -0.923589051 0.363037828
vn -0.297064403 -0.381983741 0.875123513
vn -0.408749516 0.381983741 0.828862024
vn -0.169566392 0.923589051 0.343846628
vn 0.169566392 0.923589051 -0.343846628
vn 0.408749516 0.381983741 -0.828862024
vn 0.408749516 -0.381983741 -0.828862024
vn 0.169566392 -0.923589051 -0.343846628
vn -0.169566392 -0.923589051 0.343846628
vn -0.408749516 -0.381983741 0.828862024
vn -0.513440811 0.381983741 0.768418477
vn -0.212996719 0.923589051 0.318772117
vn 0.212996719 0.923589051 -0.318772117
vn 0.513440811 0.381983741 -0.768418477
vn 0.513440811 -0.381983741 -0.768418477
vn 0.212996719 -0.923589051 -0.318772117
vn -0.212996719 -0.923589051 0.318772117
vn -0.513440811 -0.381983741 0.768418477
vn -0.609346992 0.381983741 0.694827076
vn -0.252782613 0.923589051 0.288243327
vn 0.252782613 0.923589051 -0.288243327
vn 0.609346992 0.381983741 -0.694827076
vn 0.609346992 -0.381983741 -0.694827076
vn 0.252782613 -0.923589051 -0.288243327
vn -0.252782613 -0.923589051 0.288243327
vn -0.609346992 -0.381983741 0.694827076
vn -0.694827076 0.381983741 0.609346992
vn -0.288243327 0.923589051 0.252782613
vn 0.288243327 0.923589051 -0.252782613
vn 0.694827076 0.381983741 -0.609346992
vn 0.694827076 -0.381983741 -0.609346992
vn 0.288243327 -0.923589051 -0.252782613
vn -0.288243327 -0.923589051 0.252782613
vn -0.694827076 -0.381983741 0.609346992
vn -0.768418477 0.381983741 0.513440811
vn -0.318772117 0.923589051 0.212996719
vn 0.318772117 0.923589051 -0.212996719
vn 0.768418477 0.381983741 -0.513440811
vn 0.768418477 -0.381983741 -0.513440811
vn 0.318772117 -0.923589051 -0.212996719
vn -0.318772117 -0.923589051 0.212996719
vn -0.768418477 -0.381983741 0.513440811
vn -0.828862024 0.381983741 0.408749516
vn -0.343846628 0.923589051 0.169566392
vn 0.343846628 0.923589051 -0.169566392
vn 0.828862024 0.381983741 -0.408749516
vn 0.828862024 -0.381983741 -0.408749516
vn 0.343846628 -0.923589051 -0.169566392
vn -0.343846628 -0.923589051 0.169566392
vn -0.828862024 -0.381983741 0.408749516
vn -0.875123513 0.381983741 0.297064403
vn -0.363037828 0.923589051 0.123234737
vn 0.363037828 0.923589051 -0.123234737
vn 0.875123513 0.381983741 -0.297064403
vn 0.875123513 -0.381983741 -0.297064403
vn 0.363037828 -0.923589051 -0.123234737
vn -0.363037828 -0.923589051 0.123234737
vn -0.875123513 -0.381983741 0.297064403
vn -0.906411395 0.381983741 0.180296436
vn -0.376017350 0.923589051 0.074794501
vn 0.376017350 0.923589051 -0.074794501
vn 0.906411395 0.381983741 -0.180296436
vn 0.906411395 -0.381983741 -0.180296436
vn 0.376017350 -0.923589051 -0.074794501
vn -0.376017350 -0.923589051 0.074794501
vn -0.906411395 -0.381983741 0.180296436
vn -0.922189826 0.381983895 0.060450212
vn -0.922186673 0.381991125 0.060452623
vn -0.382563111 0.923589051 0.025074511
vn -0.382555483 0.923592149 0.025076790
vn 0.382563477 0.923588981 -0.025071511
vn 0.382555511 0.923592213 -0.025074013
vn 0.922191112 0.381983498 -0.060433098
vn 0.922187600 0.381991506 -0.060436079
vn 0.922190872 -0.381983572 -0.060436293
vn 0.922187779 -0.381991580 -0.060432879
vn 0.382563111 -0.923589051 -0.025074511
vn 0.382555541 -0.923592282 -0.025070991
vn -0.382562775 -0.923589115 0.025077268
vn -0.382555511 -0.923592213 0.025074013
vn -0.922189630 -0.381983956 0.060452817
vn -0.922186820 -0.381991185 0.060450015
vn -0.923879541 0.382683412 0.000000000
vn -0.382683453 0.923879524 0.000000000
vn 0.382683453 0.923879524 0.000000000
vn 0.923879541 0.382683412 0.000000000
vn 0.923879541 -0.382683412 0.000000000
vn 0.382683453 -0.923879524 0.000000000
vn -0.382683453 -0.923879524 0.000000000
vn -0.923879541 -0.382683412 0.000000000
vn -0.922186820 0.381991185 -0.060450015
vn -0.922189630 0.381983956 -0.060452817
vn -0.382555511 0.923592213 -0.025074013
vn -0.382562775 0.923589115 -0.025077268
vn 0.382555541 0.923592282 0.025070991
vn 0.382563111 0.923589051 0.025074511
vn 0.922187779 0.381991580 0.060432879
vn 0.922190872 0.381983572 0.060436293
vn 0.922187600 -0.381991506 0.060436079
vn 0.922191112 -0.381983498 0.060433098
vn 0.382555511 -0.923592213 0.025074013
vn 0.382563477 -0.923588981 0.025071511
vn -0.382555483 -0.923592149 -0.025076790
vn -0.382563111 -0.923589051 -0.025074511
vn -0.922186673 -0.381991125 -0.060452623
vn -0.922189826 -0.381983895 -0.060450212
vn -0.060447551 0.381983833 -0.922190026
vn -0.060449000 0.381988177 -0.922188132
vn -0.025074511 0.923589051 -0.382563111
vn -0.025075880 0.923590912 -0.382558529
vn 0.025072709 0.923589009 0.382563331
vn 0.025074212 0.923590950 0.382558545
vn 0.060437269 0.381983595 0.922190799
vn 0.060439060 0.381988406 0.922188689
vn 0.060439189 -0.381983639 0.922190655
vn 0.060437138 -0.381988451 0.922188796
vn 0.025074511 -0.923589051 0.382563111
vn 0.025072396 -0.923590992 0.382558563
vn -0.025076167 -0.923589090 -0.382562909
vn -0.025074212 -0.923590950 -0.382558545
vn -0.060449116 -0.381983870 -0.922189909
vn -0.060447433 -0.381988213 -0.922188220
vn 0.060447433 0.381988213 -0.922188220
vn 0.060449116 0.381983870 -0.922189909
vn 0.025074212 0.923590950 -0.382558545
vn 0.025076167 0.923589090 -0.382562909
vn -0.025072396 0.923590992 0.382558563
vn -0.025074511 0.923589051 0.382563111
vn -0.060437138 0.381988451 0.922188796
vn -0.060439189 0.381983639 0.922190655
vn -0.060439060 -0.381988406 0.922188689
vn -0.060437269 -0.381983595 0.922190799
vn -0.025074212 -0.923590950 0.382558545
vn -0.025072709 -0.923589009 0.382563331
vn 0.025075880 -0.923590912 -0.382558529
vn 0.025074511 -0.923589051 -0.382563111
vn 0.060449000 -0.381988177 -0.922188132
vn 0.060447551 -0.381983833 -0.922190026
vn 0.922189826 0.381983895 -0.060450212
vn 0.922186673 0.381991125 -0.060452623
vn 0.382563111 0.923589051 -0.025074511
vn 0.382555483 0.923592149 -0.025076790
vn -0.382563477 0.923588981 0.025071511
vn -0.382555511 0.923592213 0.025074013
vn -0.922191112 0.381983498 0.060433098
vn -0.922187600 0.381991506 0.060436079
vn -0.922190872 -0.381983572 0.060436293
vn -0.922187779 -0.381991580 0.060432879
vn -0.382563111 -0.923589051 0.025074511
vn -0.382555541 -0.923592282 0.025070991
vn 0.382562775 -0.923589115 -0.025077268
vn 0.382555511 -0.923592213 -0.025074013
vn 0.922189630 -0.381983956 -0.060452817
vn 0.922186820 -0.381991185 -0.060450015
g fine_floor_grid
f 1/1/1 2/2/1 3/3/1
f 1/1/1 3/3/1 4/4/1
f 5/1/1 6/2/1 7/3/1
f 5/1/1 7/3/1 8/4/1
f 9/1/1 10/2/1 11/3/1
f 9/1/1 11/3/1 12/4/1
f 13/1/1 14/2/1 15/3/1
f 13/1/1 15/3/1 16/4/1
f 17/1/1 18/2/1 19/3/1
f 17/1/1 19/3/1 20/4/1
f 21/1/1 22/2/1 23/3/1
f 21/1/1 23/3/1 24/4/1
f 25/1/1 26/2/1 27/3/1
f 25/1/1 27/3/1 28/4/1
f 29/1/1 30/2/1 31/3/1
f 29/1/1 31/3/1 32/4/1
f 33/1/1 34/2/1 35/3/1
f 33/1/1 35/3/1 36/4/1
f 37/1/1 38/2/1 39/3/1
f 37/1/1 39/3/1 40/4/1
f 41/1/1 42/2/1 43/3/1
f 41/1/1 43/3/1 44/4/1
f 45/1/1 46/2/1 47/3/1
f 45/1/1 47/3/1 48/4/1
f 49/1/1 50/2/1 51/3/1
f 49/1/1 51/3/1 52/4/1
f 53/1/1 54/2/1 55/3/1
f 53/1/1 55/3/1 56/4/1
f 57/1/1 58/2/1 59/3/1
f 57/1/1 59/3/1 60/4/1
f 61/1/1 62/2/1 63/3/1
f 61/1/1 63/3/1 64/4/1
f 65/1/1 66/2/1 67/3/1
f 65/1/1 67/3/1 68/4/1
f 69/1/1 70/2/1 71/3/1
f 69/1/1 71/3/1 72/4/1
f 73/1/1 74/2/1 75/3/1
f 73/1/1 75/3/1 76/4/1
f 77/1/1 78/2/1 79/3/1
f 77/1/1 79/3/1 80/4/1
f 81/1/1 82/2/1 83/3/1
f 81/1/1 83/3/1 84/4/1
f 85/1/2 86/2/2 87/3/2
f 85/1/2 87/3/2 88/4/2
f 89/1/2 90/2/2 91/3/2
f 89/1/2 91/3/2 92/4/2
f 93/1/2 94/2/2 95/3/2
f 93/1/2 95/3/2 96/4/2
f 97/1/2 98/2/2 99/3/2
f 97/1/2 99/3/2 100/4/2
f 101/1/2 102/2/2 103/3/2
f 101/1/2 103/3/2 104/4/2
f 105/1/2 106/2/2 107/3/2
f 105/1/2 107/3/2 108/4/2
f 109/1/2 110/2/2 111/3/2
f 109/1/2 111/3/2 112/4/2
f 113/1/2 114/2/2 115/3/2
f 113/1/2 115/3/2 116/4/2
f 117/1/2 118/2/2 119/3/2
f 117/1/2 119/3/2 120/4/2
f 121/1/2 122/2/2 123/3/2
f 121/1/2 123/3/2 124/4/2
f 125/1/2 126/2/2 127/3/2
f 125/1/2 127/3/2 128/4/2
f 129/1/2 130/2/2 131/3/2
f 129/1/2 131/3/2 132/4/2
f 133/1/2 134/2/2 135/3/2
f 133/1/2 135/3/2 136/4/2
g inner_alignment_border
f 137/1/3 138/4/3 139/3/3
f 137/1/4 139/3/4 140/2/4
f 138/1/5 141/4/5 142/3/5
f 138/1/6 142/3/6 139/2/6
f 141/1/7 143/4/7 144/3/7
f 141/1/8 144/3/8 142/2/8
f 143/1/9 145/4/9 146/3/9
f 143/1/10 146/3/10 144/2/10
f 145/1/11 147/4/11 148/3/11
f 145/1/12 148/3/12 146/2/12
f 147/1/13 149/4/13 150/3/13
f 147/1/14 150/3/14 148/2/14
f 149/1/15 151/4/15 152/3/15
f 149/1/16 152/3/16 150/2/16
f 151/1/17 137/4/17 140/3/17
f 151/1/18 140/3/18 152/2/18
f 140/1/19 139/4/19 153/3/19
f 140/1/19 153/3/19 154/2/19
f 139/1/20 142/4/20 155/3/20
f 139/1/20 155/3/20 153/2/20
f 142/1/21 144/4/21 156/3/21
f 142/1/21 156/3/21 155/2/21
f 144/1/22 146/4/22 157/3/22
f 144/1/22 157/3/22 156/2/22
f 146/1/23 148/4/23 158/3/23
f 146/1/23 158/3/23 157/2/23
f 148/1/24 150/4/24 159/3/24
f 148/1/24 159/3/24 158/2/24
f 150/1/25 152/4/25 160/3/25
f 150/1/25 160/3/25 159/2/25
f 152/1/26 140/4/26 154/3/26
f 152/1/26 154/3/26 160/2/26
f 154/1/27 153/4/27 161/3/27
f 154/1/27 161/3/27 162/2/27
f 153/1/28 155/4/28 163/3/28
f 153/1/28 163/3/28 161/2/28
f 155/1/29 156/4/29 164/3/29
f 155/1/29 164/3/29 163/2/29
f 156/1/30 157/4/30 165/3/30
f 156/1/30 165/3/30 164/2/30
f 157/1/31 158/4/31 166/3/31
f 157/1/31 166/3/31 165/2/31
f 158/1/32 159/4/32 167/3/32
f 158/1/32 167/3/32 166/2/32
f 159/1/33 160/4/33 168/3/33
f 159/1/33 168/3/33 167/2/33
f 160/1/34 154/4/34 162/3/34
f 160/1/34 162/3/34 168/2/34
f 162/1/35 161/4/35 169/3/35
f 162/1/35 169/3/35 170/2/35
f 161/1/36 163/4/36 171/3/36
f 161/1/36 171/3/36 169/2/36
f 163/1/37 164/4/37 172/3/37
f 163/1/37 172/3/37 171/2/37
f 164/1/38 165/4/38 173/3/38
f 164/1/38 173/3/38 172/2/38
f 165/1/39 166/4/39 174/3/39
f 165/1/39 174/3/39 173/2/39
f 166/1/40 167/4/40 175/3/40
f 166/1/40 175/3/40 174/2/40
f 167/1/41 168/4/41 176/3/41
f 167/1/41 176/3/41 175/2/41
f 168/1/42 162/4/42 170/3/42
f 168/1/42 170/3/42 176/2/42
f 170/1/43 169/4/43 177/3/43
f 170/1/43 177/3/43 178/2/43
f 169/1/44 171/4/44 179/3/44
f 169/1/44 179/3/44 177/2/44
f 171/1/45 172/4/45 180/3/45
f 171/1/45 180/3/45 179/2/45
f 172/1/46 173/4/46 181/3/46
f 172/1/46 181/3/46 180/2/46
f 173/1/47 174/4/47 182/3/47
f 173/1/47 182/3/47 181/2/47
f 174/1/48 175/4/48 183/3/48
f 174/1/48 183/3/48 182/2/48
f 175/1/49 176/4/49 184/3/49
f 175/1/49 184/3/49 183/2/49
f 176/1/50 170/4/50 178/3/50
f 176/1/50 178/3/50 184/2/50
f 178/1/51 177/4/51 185/3/51
f 178/1/51 185/3/51 186/2/51
f 177/1/52 179/4/52 187/3/52
f 177/1/52 187/3/52 185/2/52
f 179/1/53 180/4/53 188/3/53
f 179/1/53 188/3/53 187/2/53
f 180/1/54 181/4/54 189/3/54
f 180/1/54 189/3/54 188/2/54
f 181/1/55 182/4/55 190/3/55
f 181/1/55 190/3/55 189/2/55
f 182/1/56 183/4/56 191/3/56
f 182/1/56 191/3/56 190/2/56
f 183/1/57 184/4/57 192/3/57
f 183/1/57 192/3/57 191/2/57
f 184/1/58 178/4/58 186/3/58
f 184/1/58 186/3/58 192/2/58
f 186/1/59 185/4/59 193/3/59
f 186/1/59 193/3/59 194/2/59
f 185/1/60 187/4/60 195/3/60
f 185/1/60 195/3/60 193/2/60
f 187/1/61 188/4/61 196/3/61
f 187/1/61 196/3/61 195/2/61
f 188/1/62 189/4/62 197/3/62
f 188/1/62 197/3/62 196/2/62
f 189/1/63 190/4/63 198/3/63
f 189/1/63 198/3/63 197/2/63
f 190/1/64 191/4/64 199/3/64
f 190/1/64 199/3/64 198/2/64
f 191/1/65 192/4/65 200/3/65
f 191/1/65 200/3/65 199/2/65
f 192/1/66 186/4/66 194/3/66
f 192/1/66 194/3/66 200/2/66
f 194/1/67 193/4/67 201/3/67
f 194/1/67 201/3/67 202/2/67
f 193/1/68 195/4/68 203/3/68
f 193/1/68 203/3/68 201/2/68
f 195/1/69 196/4/69 204/3/69
f 195/1/69 204/3/69 203/2/69
f 196/1/70 197/4/70 205/3/70
f 196/1/70 205/3/70 204/2/70
f 197/1/71 198/4/71 206/3/71
f 197/1/71 206/3/71 205/2/71
f 198/1/72 199/4/72 207/3/72
f 198/1/72 207/3/72 206/2/72
f 199/1/73 200/4/73 208/3/73
f 199/1/73 208/3/73 207/2/73
f 200/1/74 194/4/74 202/3/74
f 200/1/74 202/3/74 208/2/74
f 202/1/75 201/4/75 209/3/75
f 202/1/75 209/3/75 210/2/75
f 201/1/76 203/4/76 211/3/76
f 201/1/76 211/3/76 209/2/76
f 203/1/77 204/4/77 212/3/77
f 203/1/77 212/3/77 211/2/77
f 204/1/78 205/4/78 213/3/78
f 204/1/78 213/3/78 212/2/78
f 205/1/79 206/4/79 214/3/79
f 205/1/79 214/3/79 213/2/79
f 206/1/80 207/4/80 215/3/80
f 206/1/80 215/3/80 214/2/80
f 207/1/81 208/4/81 216/3/81
f 207/1/81 216/3/81 215/2/81
f 208/1/82 202/4/82 210/3/82
f 208/1/82 210/3/82 216/2/82
f 210/1/83 209/4/83 217/3/83
f 210/1/83 217/3/83 218/2/83
f 209/1/84 211/4/84 219/3/84
f 209/1/84 219/3/84 217/2/84
f 211/1/85 212/4/85 220/3/85
f 211/1/85 220/3/85 219/2/85
f 212/1/86 213/4/86 221/3/86
f 212/1/86 221/3/86 220/2/86
f 213/1/87 214/4/87 222/3/87
f 213/1/87 222/3/87 221/2/87
f 214/1/88 215/4/88 223/3/88
f 214/1/88 223/3/88 222/2/88
f 215/1/89 216/4/89 224/3/89
f 215/1/89 224/3/89 223/2/89
f 216/1/90 210/4/90 218/3/90
f 216/1/90 218/3/90 224/2/90
f 218/1/91 217/4/91 225/3/91
f 218/1/91 225/3/91 226/2/91
f 217/1/92 219/4/92 227/3/92
f 217/1/92 227/3/92 225/2/92
f 219/1/93 220/4/93 228/3/93
f 219/1/93 228/3/93 227/2/93
f 220/1/94 221/4/94 229/3/94
f 220/1/94 229/3/94 228/2/94
f 221/1/95 222/4/95 230/3/95
f 221/1/95 230/3/95 229/2/95
f 222/1/96 223/4/96 231/3/96
f 222/1/96 231/3/96 230/2/96
f 223/1/97 224/4/97 232/3/97
f 223/1/97 232/3/97 231/2/97
f 224/1/98 218/4/98 226/3/98
f 224/1/98 226/3/98 232/2/98
f 226/1/99 225/4/99 233/3/99
f 226/1/100 233/3/100 234/2/100
f 225/1/101 227/4/101 235/3/101
f 225/1/102 235/3/102 233/2/102
f 227/1/103 228/4/103 236/3/103
f 227/1/104 236/3/104 235/2/104
f 228/1/105 229/4/105 237/3/105
f 228/1/106 237/3/106 236/2/106
f 229/1/107 230/4/107 238/3/107
f 229/1/108 238/3/108 237/2/108
f 230/1/109 231/4/109 239/3/109
f 230/1/110 239/3/110 238/2/110
f 231/1/111 232/4/111 240/3/111
f 231/1/112 240/3/112 239/2/112
f 232/1/113 226/4/113 234/3/113
f 232/1/114 234/3/114 240/2/114
f 234/1/115 233/4/115 241/3/115
f 234/1/115 241/3/115 242/2/115
f 233/1/116 235/4/116 243/3/116
f 233/1/116 243/3/116 241/2/116
f 235/1/117 236/4/117 244/3/117
f 235/1/117 244/3/117 243/2/117
f 236/1/118 237/4/118 245/3/118
f 236/1/118 245/3/118 244/2/118
f 237/1/119 238/4/119 246/3/119
f 237/1/119 246/3/119 245/2/119
f 238/1/120 239/4/120 247/3/120
f 238/1/120 247/3/120 246/2/120
f 239/1/121 240/4/121 248/3/121
f 239/1/121 248/3/121 247/2/121
f 240/1/122 234/4/122 242/3/122
f 240/1/122 242/3/122 248/2/122
f 242/1/123 241/4/123 249/3/123
f 242/1/124 249/3/124 250/2/124
f 241/1/125 243/4/125 251/3/125
f 241/1/126 251/3/126 249/2/126
f 243/1/127 244/4/127 252/3/127
f 243/1/128 252/3/128 251/2/128
f 244/1/129 245/4/129 253/3/129
f 244/1/130 253/3/130 252/2/130
f 245/1/131 246/4/131 254/3/131
f 245/1/132 254/3/132 253/2/132
f 246/1/133 247/4/133 255/3/133
f 246/1/134 255/3/134 254/2/134
f 247/1/135 248/4/135 256/3/135
f 247/1/136 256/3/136 255/2/136
f 248/1/137 242/4/137 250/3/137
f 248/1/138 250/3/138 256/2/138
f 250/1/139 249/4/139 257/3/139
f 250/1/139 257/3/139 258/2/139
f 249/1/140 251/4/140 259/3/140
f 249/1/140 259/3/140 257/2/140
f 251/1/141 252/4/141 260/3/141
f 251/1/141 260/3/141 259/2/141
f 252/1/142 253/4/142 261/3/142
f 252/1/142 261/3/142 260/2/142
f 253/1/143 254/4/143 262/3/143
f 253/1/143 262/3/143 261/2/143
f 254/1/144 255/4/144 263/3/144
f 254/1/144 263/3/144 262/2/144
f 255/1/145 256/4/145 264/3/145
f 255/1/145 264/3/145 263/2/145
f 256/1/146 250/4/146 258/3/146
f 256/1/146 258/3/146 264/2/146
f 258/1/147 257/4/147 265/3/147
f 258/1/147 265/3/147 266/2/147
f 257/1/148 259/4/148 267/3/148
f 257/1/148 267/3/148 265/2/148
f 259/1/149 260/4/149 268/3/149
f 259/1/149 268/3/149 267/2/149
f 260/1/150 261/4/150 269/3/150
f 260/1/150 269/3/150 268/2/150
f 261/1/151 262/4/151 270/3/151
f 261/1/151 270/3/151 269/2/151
f 262/1/152 263/4/152 271/3/152
f 262/1/152 271/3/152 270/2/152
f 263/1/153 264/4/153 272/3/153
f 263/1/153 272/3/153 271/2/153
f 264/1/154 258/4/154 266/3/154
f 264/1/154 266/3/154 272/2/154
f 266/1/155 265/4/155 273/3/155
f 266/1/155 273/3/155 274/2/155
f 265/1/156 267/4/156 275/3/156
f 265/1/156 275/3/156 273/2/156
f 267/1/157 268/4/157 276/3/157
f 267/1/157 276/3/157 275/2/157
f 268/1/158 269/4/158 277/3/158
f 268/1/158 277/3/158 276/2/158
f 269/1/159 270/4/159 278/3/159
f 269/1/159 278/3/159 277/2/159
f 270/1/160 271/4/160 279/3/160
f 270/1/160 279/3/160 278/2/160
f 271/1/161 272/4/161 280/3/161
f 271/1/161 280/3/161 279/2/161
f 272/1/162 266/4/162 274/3/162
f 272/1/162 274/3/162 280/2/162
f 274/1/163 273/4/163 281/3/163
f 274/1/163 281/3/163 282/2/163
f 273/1/164 275/4/164 283/3/164
f 273/1/164 283/3/164 281/2/164
f 275/1/165 276/4/165 284/3/165
f 275/1/165 284/3/165 283/2/165
f 276/1/166 277/4/166 285/3/166
f 276/1/166 285/3/166 284/2/166
f 277/1/167 278/4/167 286/3/167
f 277/1/167 286/3/167 285/2/167
f 278/1/168 279/4/168 287/3/168
f 278/1/168 287/3/168 286/2/168
f 279/1/169 280/4/169 288/3/169
f 279/1/169 288/3/169 287/2/169
f 280/1/170 274/4/170 282/3/170
f 280/1/170 282/3/170 288/2/170
f 282/1/171 281/4/171 289/3/171
f 282/1/171 289/3/171 290/2/171
f 281/1/172 283/4/172 291/3/172
f 281/1/172 291/3/172 289/2/172
f 283/1/173 284/4/173 292/3/173
f 283/1/173 292/3/173 291/2/173
f 284/1/174 285/4/174 293/3/174
f 284/1/174 293/3/174 292/2/174
f 285/1/175 286/4/175 294/3/175
f 285/1/175 294/3/175 293/2/175
f 286/1/176 287/4/176 295/3/176
f 286/1/176 295/3/176 294/2/176
f 287/1/177 288/4/177 296/3/177
f 287/1/177 296/3/177 295/2/177
f 288/1/178 282/4/178 290/3/178
f 288/1/178 290/3/178 296/2/178
f 290/1/179 289/4/179 297/3/179
f 290/1/179 297/3/179 298/2/179
f 289/1/180 291/4/180 299/3/180
f 289/1/180 299/3/180 297/2/180
f 291/1/181 292/4/181 300/3/181
f 291/1/181 300/3/181 299/2/181
f 292/1/182 293/4/182 301/3/182
f 292/1/182 301/3/182 300/2/182
f 293/1/183 294/4/183 302/3/183
f 293/1/183 302/3/183 301/2/183
f 294/1/184 295/4/184 303/3/184
f 294/1/184 303/3/184 302/2/184
f 295/1/185 296/4/185 304/3/185
f 295/1/185 304/3/185 303/2/185
f 296/1/186 290/4/186 298/3/186
f 296/1/186 298/3/186 304/2/186
f 298/1/187 297/4/187 305/3/187
f 298/1/187 305/3/187 306/2/187
f 297/1/188 299/4/188 307/3/188
f 297/1/188 307/3/188 305/2/188
f 299/1/189 300/4/189 308/3/189
f 299/1/189 308/3/189 307/2/189
f 300/1/190 301/4/190 309/3/190
f 300/1/190 309/3/190 308/2/190
f 301/1/191 302/4/191 310/3/191
f 301/1/191 310/3/191 309/2/191
f 302/1/192 303/4/192 311/3/192
f 302/1/192 311/3/192 310/2/192
f 303/1/193 304/4/193 312/3/193
f 303/1/193 312/3/193 311/2/193
f 304/1/194 298/4/194 306/3/194
f 304/1/194 306/3/194 312/2/194
f 306/1/195 305/4/195 313/3/195
f 306/1/195 313/3/195 314/2/195
f 305/1/196 307/4/196 315/3/196
f 305/1/196 315/3/196 313/2/196
f 307/1/197 308/4/197 316/3/197
f 307/1/197 316/3/197 315/2/197
f 308/1/198 309/4/198 317/3/198
f 308/1/198 317/3/198 316/2/198
f 309/1/199 310/4/199 318/3/199
f 309/1/199 318/3/199 317/2/199
f 310/1/200 311/4/200 319/3/200
f 310/1/200 319/3/200 318/2/200
f 311/1/201 312/4/201 320/3/201
f 311/1/201 320/3/201 319/2/201
f 312/1/202 306/4/202 314/3/202
f 312/1/202 314/3/202 320/2/202
f 314/1/203 313/4/203 321/3/203
f 314/1/203 321/3/203 322/2/203
f 313/1/204 315/4/204 323/3/204
f 313/1/204 323/3/204 321/2/204
f 315/1/205 316/4/205 324/3/205
f 315/1/205 324/3/205 323/2/205
f 316/1/206 317/4/206 325/3/206
f 316/1/206 325/3/206 324/2/206
f 317/1/207 318/4/207 326/3/207
f 317/1/207 326/3/207 325/2/207
f 318/1/208 319/4/208 327/3/208
f 318/1/208 327/3/208 326/2/208
f 319/1/209 320/4/209 328/3/209
f 319/1/209 328/3/209 327/2/209
f 320/1/210 314/4/210 322/3/210
f 320/1/210 322/3/210 328/2/210
f 322/1/211 321/4/211 329/3/211
f 322/1/211 329/3/211 330/2/211
f 321/1/212 323/4/212 331/3/212
f 321/1/212 331/3/212 329/2/212
f 323/1/213 324/4/213 332/3/213
f 323/1/213 332/3/213 331/2/213
f 324/1/214 325/4/214 333/3/214
f 324/1/214 333/3/214 332/2/214
f 325/1/215 326/4/215 334/3/215
f 325/1/215 334/3/215 333/2/215
f 326/1/216 327/4/216 335/3/216
f 326/1/216 335/3/216 334/2/216
f 327/1/217 328/4/217 336/3/217
f 327/1/217 336/3/217 335/2/217
f 328/1/218 322/4/218 330/3/218
f 328/1/218 330/3/218 336/2/218
f 330/1/219 329/4/219 337/3/219
f 330/1/220 337/3/220 338/2/220
f 329/1/221 331/4/221 339/3/221
f 329/1/222 339/3/222 337/2/222
f 331/1/223 332/4/223 340/3/223
f 331/1/224 340/3/224 339/2/224
f 332/1/225 333/4/225 341/3/225
f 332/1/226 341/3/226 340/2/226
f 333/1/227 334/4/227 342/3/227
f 333/1/228 342/3/228 341/2/228
f 334/1/229 335/4/229 343/3/229
f 334/1/230 343/3/230 342/2/230
f 335/1/231 336/4/231 344/3/231
f 335/1/232 344/3/232 343/2/232
f 336/1/233 330/4/233 338/3/233
f 336/1/234 338/3/234 344/2/234
f 338/1/235 337/4/235 345/3/235
f 338/1/235 345/3/235 346/2/235
f 337/1/236 339/4/236 347/3/236
f 337/1/236 347/3/236 345/2/236
f 339/1/237 340/4/237 348/3/237
f 339/1/237 348/3/237 347/2/237
f 340/1/238 341/4/238 349/3/238
f 340/1/238 349/3/238 348/2/238
f 341/1/239 342/4/239 350/3/239
f 341/1/239 350/3/239 349/2/239
f 342/1/240 343/4/240 351/3/240
f 342/1/240 351/3/240 350/2/240
f 343/1/241 344/4/241 352/3/241
f 343/1/241 352/3/241 351/2/241
f 344/1/242 338/4/242 346/3/242
f 344/1/242 346/3/242 352/2/242
f 346/1/243 345/4/243 353/3/243
f 346/1/244 353/3/244 354/2/244
f 345/1/245 347/4/245 355/3/245
f 345/1/246 355/3/246 353/2/246
f 347/1/247 348/4/247 356/3/247
f 347/1/248 356/3/248 355/2/248
f 348/1/249 349/4/249 357/3/249
f 348/1/250 357/3/250 356/2/250
f 349/1/251 350/4/251 358/3/251
f 349/1/252 358/3/252 357/2/252
f 350/1/253 351/4/253 359/3/253
f 350/1/254 359/3/254 358/2/254
f 351/1/255 352/4/255 360/3/255
f 351/1/256 360/3/256 359/2/256
f 352/1/257 346/4/257 354/3/257
f 352/1/258 354/3/258 360/2/258
f 354/1/22 353/4/22 361/3/22
f 354/1/22 361/3/22 362/2/22
f 353/1/21 355/4/21 363/3/21
f 353/1/21 363/3/21 361/2/21
f 355/1/20 356/4/20 364/3/20
f 355/1/20 364/3/20 363/2/20
f 356/1/19 357/4/19 365/3/19
f 356/1/19 365/3/19 364/2/19
f 357/1/26 358/4/26 366/3/26
f 357/1/26 366/3/26 365/2/26
f 358/1/25 359/4/25 367/3/25
f 358/1/25 367/3/25 366/2/25
f 359/1/24 360/4/24 368/3/24
f 359/1/24 368/3/24 367/2/24
f 360/1/23 354/4/23 362/3/23
f 360/1/23 362/3/23 368/2/23
f 362/1/30 361/4/30 369/3/30
f 362/1/30 369/3/30 370/2/30
f 361/1/29 363/4/29 371/3/29
f 361/1/29 371/3/29 369/2/29
f 363/1/28 364/4/28 372/3/28
f 363/1/28 372/3/28 371/2/28
f 364/1/27 365/4/27 373/3/27
f 364/1/27 373/3/27 372/2/27
f 365/1/34 366/4/34 374/3/34
f 365/1/34 374/3/34 373/2/34
f 366/1/33 367/4/33 375/3/33
f 366/1/33 375/3/33 374/2/33
f 367/1/32 368/4/32 376/3/32
f 367/1/32 376/3/32 375/2/32
f 368/1/31 362/4/31 370/3/31
f 368/1/31 370/3/31 376/2/31
f 370/1/38 369/4/38 377/3/38
f 370/1/38 377/3/38 378/2/38
f 369/1/37 371/4/37 379/3/37
f 369/1/37 379/3/37 377/2/37
f 371/1/36 372/4/36 380/3/36
f 371/1/36 380/3/36 379/2/36
f 372/1/35 373/4/35 381/3/35
f 372/1/35 381/3/35 380/2/35
f 373/1/42 374/4/42 382/3/42
f 373/1/42 382/3/42 381/2/42
f 374/1/41 375/4/41 383/3/41
f 374/1/41 383/3/41 382/2/41
f 375/1/40 376/4/40 384/3/40
f 375/1/40 384/3/40 383/2/40
f 376/1/39 370/4/39 378/3/39
f 376/1/39 378/3/39 384/2/39
f 378/1/46 377/4/46 385/3/46
f 378/1/46 385/3/46 386/2/46
f 377/1/45 379/4/45 387/3/45
f 377/1/45 387/3/45 385/2/45
f 379/1/44 380/4/44 388/3/44
f 379/1/44 388/3/44 387/2/44
f 380/1/43 381/4/43 389/3/43
f 380/1/43 389/3/43 388/2/43
f 381/1/50 382/4/50 390/3/50
f 381/1/50 390/3/50 389/2/50
f 382/1/49 383/4/49 391/3/49
f 382/1/49 391/3/49 390/2/49
f 383/1/48 384/4/48 392/3/48
f 383/1/48 392/3/48 391/2/48
f 384/1/47 378/4/47 386/3/47
f 384/1/47 386/3/47 392/2/47
f 386/1/54 385/4/54 393/3/54
f 386/1/54 393/3/54 394/2/54
f 385/1/53 387/4/53 395/3/53
f 385/1/53 395/3/53 393/2/53
f 387/1/52 388/4/52 396/3/52
f 387/1/52 396/3/52 395/2/52
f 388/1/51 389/4/51 397/3/51
f 388/1/51 397/3/51 396/2/51
f 389/1/58 390/4/58 398/3/58
f 389/1/58 398/3/58 397/2/58
f 390/1/57 391/4/57 399/3/57
f 390/1/57 399/3/57 398/2/57
f 391/1/56 392/4/56 400/3/56
f 391/1/56 400/3/56 399/2/56
f 392/1/55 386/4/55 394/3/55
f 392/1/55 394/3/55 400/2/55
f 394/1/62 393/4/62 401/3/62
f 394/1/62 401/3/62 402/2/62
f 393/1/61 395/4/61 403/3/61
f 393/1/61 403/3/61 401/2/61
f 395/1/60 396/4/60 404/3/60
f 395/1/60 404/3/60 403/2/60
f 396/1/59 397/4/59 405/3/59
f 396/1/59 405/3/59 404/2/59
f 397/1/66 398/4/66 406/3/66
f 397/1/66 406/3/66 405/2/66
f 398/1/65 399/4/65 407/3/65
f 398/1/65 407/3/65 406/2/65
f 399/1/64 400/4/64 408/3/64
f 399/1/64 408/3/64 407/2/64
f 400/1/63 394/4/63 402/3/63
f 400/1/63 402/3/63 408/2/63
f 402/1/70 401/4/70 409/3/70
f 402/1/70 409/3/70 410/2/70
f 401/1/69 403/4/69 411/3/69
f 401/1/69 411/3/69 409/2/69
f 403/1/68 404/4/68 412/3/68
f 403/1/68 412/3/68 411/2/68
f 404/1/67 405/4/67 413/3/67
f 404/1/67 413/3/67 412/2/67
f 405/1/74 406/4/74 414/3/74
f 405/1/74 414/3/74 413/2/74
f 406/1/73 407/4/73 415/3/73
f 406/1/73 415/3/73 414/2/73
f 407/1/72 408/4/72 416/3/72
f 407/1/72 416/3/72 415/2/72
f 408/1/71 402/4/71 410/3/71
f 408/1/71 410/3/71 416/2/71
f 410/1/78 409/4/78 417/3/78
f 410/1/78 417/3/78 418/2/78
f 409/1/77 411/4/77 419/3/77
f 409/1/77 419/3/77 417/2/77
f 411/1/76 412/4/76 420/3/76
f 411/1/76 420/3/76 419/2/76
f 412/1/75 413/4/75 421/3/75
f 412/1/75 421/3/75 420/2/75
f 413/1/82 414/4/82 422/3/82
f 413/1/82 422/3/82 421/2/82
f 414/1/81 415/4/81 423/3/81
f 414/1/81 423/3/81 422/2/81
f 415/1/80 416/4/80 424/3/80
f 415/1/80 424/3/80 423/2/80
f 416/1/79 410/4/79 418/3/79
f 416/1/79 418/3/79 424/2/79
f 418/1/86 417/4/86 425/3/86
f 418/1/86 425/3/86 426/2/86
f 417/1/85 419/4/85 427/3/85
f 417/1/85 427/3/85 425/2/85
f 419/1/84 420/4/84 428/3/84
f 419/1/84 428/3/84 427/2/84
f 420/1/83 421/4/83 429/3/83
f 420/1/83 429/3/83 428/2/83
f 421/1/90 422/4/90 430/3/90
f 421/1/90 430/3/90 429/2/90
f 422/1/89 423/4/89 431/3/89
f 422/1/89 431/3/89 430/2/89
f 423/1/88 424/4/88 432/3/88
f 423/1/88 432/3/88 431/2/88
f 424/1/87 418/4/87 426/3/87
f 424/1/87 426/3/87 432/2/87
f 426/1/94 425/4/94 433/3/94
f 426/1/94 433/3/94 434/2/94
f 425/1/93 427/4/93 435/3/93
f 425/1/93 435/3/93 433/2/93
f 427/1/92 428/4/92 436/3/92
f 427/1/92 436/3/92 435/2/92
f 428/1/91 429/4/91 437/3/91
f 428/1/91 437/3/91 436/2/91
f 429/1/98 430/4/98 438/3/98
f 429/1/98 438/3/98 437/2/98
f 430/1/97 431/4/97 439/3/97
f 430/1/97 439/3/97 438/2/97
f 431/1/96 432/4/96 440/3/96
f 431/1/96 440/3/96 439/2/96
f 432/1/95 426/4/95 434/3/95
f 432/1/95 434/3/95 440/2/95
f 434/1/259 433/4/259 441/3/259
f 434/1/260 441/3/260 442/2/260
f 433/1/261 435/4/261 443/3/261
f 433/1/262 443/3/262 441/2/262
f 435/1/263 436/4/263 444/3/263
f 435/1/264 444/3/264 443/2/264
f 436/1/265 437/4/265 445/3/265
f 436/1/266 445/3/266 444/2/266
f 437/1/267 438/4/267 446/3/267
f 437/1/268 446/3/268 445/2/268
f 438/1/269 439/4/269 447/3/269
f 438/1/270 447/3/270 446/2/270
f 439/1/271 440/4/271 448/3/271
f 439/1/272 448/3/272 447/2/272
f 440/1/273 434/4/273 442/3/273
f 440/1/274 442/3/274 448/2/274
f 442/1/118 441/4/118 449/3/118
f 442/1/118 449/3/118 450/2/118
f 441/1/117 443/4/117 451/3/117
f 441/1/117 451/3/117 449/2/117
f 443/1/116 444/4/116 452/3/116
f 443/1/116 452/3/116 451/2/116
f 444/1/115 445/4/115 453/3/115
f 444/1/115 453/3/115 452/2/115
f 445/1/122 446/4/122 454/3/122
f 445/1/122 454/3/122 453/2/122
f 446/1/121 447/4/121 455/3/121
f 446/1/121 455/3/121 454/2/121
f 447/1/120 448/4/120 456/3/120
f 447/1/120 456/3/120 455/2/120
f 448/1/119 442/4/119 450/3/119
f 448/1/119 450/3/119 456/2/119
f 450/1/275 449/4/275 457/3/275
f 450/1/276 457/3/276 458/2/276
f 449/1/277 451/4/277 459/3/277
f 449/1/278 459/3/278 457/2/278
f 451/1/279 452/4/279 460/3/279
f 451/1/280 460/3/280 459/2/280
f 452/1/281 453/4/281 461/3/281
f 452/1/282 461/3/282 460/2/282
f 453/1/283 454/4/283 462/3/283
f 453/1/284 462/3/284 461/2/284
f 454/1/285 455/4/285 463/3/285
f 454/1/286 463/3/286 462/2/286
f 455/1/287 456/4/287 464/3/287
f 455/1/288 464/3/288 463/2/288
f 456/1/289 450/4/289 458/3/289
f 456/1/290 458/3/290 464/2/290
f 458/1/142 457/4/142 465/3/142
f 458/1/142 465/3/142 466/2/142
f 457/1/141 459/4/141 467/3/141
f 457/1/141 467/3/141 465/2/141
f 459/1/140 460/4/140 468/3/140
f 459/1/140 468/3/140 467/2/140
f 460/1/139 461/4/139 469/3/139
f 460/1/139 469/3/139 468/2/139
f 461/1/146 462/4/146 470/3/146
f 461/1/146 470/3/146 469/2/146
f 462/1/145 463/4/145 471/3/145
f 462/1/145 471/3/145 470/2/145
f 463/1/144 464/4/144 472/3/144
f 463/1/144 472/3/144 471/2/144
f 464/1/143 458/4/143 466/3/143
f 464/1/143 466/3/143 472/2/143
f 466/1/150 465/4/150 473/3/150
f 466/1/150 473/3/150 474/2/150
f 465/1/149 467/4/149 475/3/149
f 465/1/149 475/3/149 473/2/149
f 467/1/148 468/4/148 476/3/148
f 467/1/148 476/3/148 475/2/148
f 468/1/147 469/4/147 477/3/147
f 468/1/147 477/3/147 476/2/147
f 469/1/154 470/4/154 478/3/154
f 469/1/154 478/3/154 477/2/154
f 470/1/153 471/4/153 479/3/153
f 470/1/153 479/3/153 478/2/153
f 471/1/152 472/4/152 480/3/152
f 471/1/152 480/3/152 479/2/152
f 472/1/151 466/4/151 474/3/151
f 472/1/151 474/3/151 480/2/151
f 474/1/158 473/4/158 481/3/158
f 474/1/158 481/3/158 482/2/158
f 473/1/157 475/4/157 483/3/157
f 473/1/157 483/3/157 481/2/157
f 475/1/156 476/4/156 484/3/156
f 475/1/156 484/3/156 483/2/156
f 476/1/155 477/4/155 485/3/155
f 476/1/155 485/3/155 484/2/155
f 477/1/162 478/4/162 486/3/162
f 477/1/162 486/3/162 485/2/162
f 478/1/161 479/4/161 487/3/161
f 478/1/161 487/3/161 486/2/161
f 479/1/160 480/4/160 488/3/160
f 479/1/160 488/3/160 487/2/160
f 480/1/159 474/4/159 482/3/159
f 480/1/159 482/3/159 488/2/159
f 482/1/166 481/4/166 489/3/166
f 482/1/166 489/3/166 490/2/166
f 481/1/165 483/4/165 491/3/165
f 481/1/165 491/3/165 489/2/165
f 483/1/164 484/4/164 492/3/164
f 483/1/164 492/3/164 491/2/164
f 484/1/163 485/4/163 493/3/163
f 484/1/163 493/3/163 492/2/163
f 485/1/170 486/4/170 494/3/170
f 485/1/170 494/3/170 493/2/170
f 486/1/169 487/4/169 495/3/169
f 486/1/169 495/3/169 494/2/169
f 487/1/168 488/4/168 496/3/168
f 487/1/168 496/3/168 495/2/168
f 488/1/167 482/4/167 490/3/167
f 488/1/167 490/3/167 496/2/167
f 490/1/174 489/4/174 497/3/174
f 490/1/174 497/3/174 498/2/174
f 489/1/173 491/4/173 499/3/173
f 489/1/173 499/3/173 497/2/173
f 491/1/172 492/4/172 500/3/172
f 491/1/172 500/3/172 499/2/172
f 492/1/171 493/4/171 501/3/171
f 492/1/171 501/3/171 500/2/171
f 493/1/178 494/4/178 502/3/178
f 493/1/178 502/3/178 501/2/178
f 494/1/177 495/4/177 503/3/177
f 494/1/177 503/3/177 502/2/177
f 495/1/176 496/4/176 504/3/176
f 495/1/176 504/3/176 503/2/176
f 496/1/175 490/4/175 498/3/175
f 496/1/175 498/3/175 504/2/175
f 498/1/182 497/4/182 505/3/182
f 498/1/182 505/3/182 506/2/182
f 497/1/181 499/4/181 507/3/181
f 497/1/181 507/3/181 505/2/181
f 499/1/180 500/4/180 508/3/180
f 499/1/180 508/3/180 507/2/180
f 500/1/179 501/4/179 509/3/179
f 500/1/179 509/3/179 508/2/179
f 501/1/186 502/4/186 510/3/186
f 501/1/186 510/3/186 509/2/186
f 502/1/185 503/4/185 511/3/185
f 502/1/185 511/3/185 510/2/185
f 503/1/184 504/4/184 512/3/184
f 503/1/184 512/3/184 511/2/184
f 504/1/183 498/4/183 506/3/183
f 504/1/183 506/3/183 512/2/183
f 506/1/190 505/4/190 513/3/190
f 506/1/190 513/3/190 514/2/190
f 505/1/189 507/4/189 515/3/189
f 505/1/189 515/3/189 513/2/189
f 507/1/188 508/4/188 516/3/188
f 507/1/188 516/3/188 515/2/188
f 508/1/187 509/4/187 517/3/187
f 508/1/187 517/3/187 516/2/187
f 509/1/194 510/4/194 518/3/194
f 509/1/194 518/3/194 517/2/194
f 510/1/193 511/4/193 519/3/193
f 510/1/193 519/3/193 518/2/193
f 511/1/192 512/4/192 520/3/192
f 511/1/192 520/3/192 519/2/192
f 512/1/191 506/4/191 514/3/191
f 512/1/191 514/3/191 520/2/191
f 514/1/198 513/4/198 521/3/198
f 514/1/198 521/3/198 522/2/198
f 513/1/197 515/4/197 523/3/197
f 513/1/197 523/3/197 521/2/197
f 515/1/196 516/4/196 524/3/196
f 515/1/196 524/3/196 523/2/196
f 516/1/195 517/4/195 525/3/195
f 516/1/195 525/3/195 524/2/195
f 517/1/202 518/4/202 526/3/202
f 517/1/202 526/3/202 525/2/202
f 518/1/201 519/4/201 527/3/201
f 518/1/201 527/3/201 526/2/201
f 519/1/200 520/4/200 528/3/200
f 519/1/200 528/3/200 527/2/200
f 520/1/199 514/4/199 522/3/199
f 520/1/199 522/3/199 528/2/199
f 522/1/206 521/4/206 529/3/206
f 522/1/206 529/3/206 530/2/206
f 521/1/205 523/4/205 531/3/205
f 521/1/205 531/3/205 529/2/205
f 523/1/204 524/4/204 532/3/204
f 523/1/204 532/3/204 531/2/204
f 524/1/203 525/4/203 533/3/203
f 524/1/203 533/3/203 532/2/203
f 525/1/210 526/4/210 534/3/210
f 525/1/210 534/3/210 533/2/210
f 526/1/209 527/4/209 535/3/209
f 526/1/209 535/3/209 534/2/209
f 527/1/208 528/4/208 536/3/208
f 527/1/208 536/3/208 535/2/208
f 528/1/207 522/4/207 530/3/207
f 528/1/207 530/3/207 536/2/207
f 530/1/214 529/4/214 537/3/214
f 530/1/214 537/3/214 538/2/214
f 529/1/213 531/4/213 539/3/213
f 529/1/213 539/3/213 537/2/213
f 531/1/212 532/4/212 540/3/212
f 531/1/212 540/3/212 539/2/212
f 532/1/211 533/4/211 541/3/211
f 532/1/211 541/3/211 540/2/211
f 533/1/218 534/4/218 542/3/218
f 533/1/218 542/3/218 541/2/218
f 534/1/217 535/4/217 543/3/217
f 534/1/217 543/3/217 542/2/217
f 535/1/216 536/4/216 544/3/216
f 535/1/216 544/3/216 543/2/216
f 536/1/215 530/4/215 538/3/215
f 536/1/215 538/3/215 544/2/215
f 538/1/291 537/4/291 545/3/291
f 538/1/292 545/3/292 546/2/292
f 537/1/293 539/4/293 547/3/293
f 537/1/294 547/3/294 545/2/294
f 539/1/295 540/4/295 548/3/295
f 539/1/296 548/3/296 547/2/296
f 540/1/297 541/4/297 549/3/297
f 540/1/298 549/3/298 548/2/298
f 541/1/299 542/4/299 550/3/299
f 541/1/300 550/3/300 549/2/300
f 542/1/301 543/4/301 551/3/301
f 542/1/302 551/3/302 550/2/302
f 543/1/303 544/4/303 552/3/303
f 543/1/304 552/3/304 551/2/304
f 544/1/305 538/4/305 546/3/305
f 544/1/306 546/3/306 552/2/306
f 546/1/238 545/4/238 138/3/238
f 546/1/238 138/3/238 137/2/238
f 545/1/237 547/4/237 141/3/237
f 545/1/237 141/3/237 138/2/237
f 547/1/236 548/4/236 143/3/236
f 547/1/236 143/3/236 141/2/236
f 548/1/235 549/4/235 145/3/235
f 548/1/235 145/3/235 143/2/235
f 549/1/242 550/4/242 147/3/242
f 549/1/242 147/3/242 145/2/242
f 550/1/241 551/4/241 149/3/241
f 550/1/241 149/3/241 147/2/241
f 551/1/240 552/4/240 151/3/240
f 551/1/240 151/3/240 149/2/240
f 552/1/239 546/4/239 137/3/239
f 552/1/239 137/3/239 151/2/239
g alignment_ticks
f 553/1/1 554/2/1 555/3/1
f 553/1/1 555/3/1 556/4/1
f 557/1/1 558/2/1 559/3/1
f 557/1/1 559/3/1 560/4/1
f 561/1/1 562/2/1 563/3/1
f 561/1/1 563/3/1 564/4/1
f 565/1/1 566/2/1 567/3/1
f 565/1/1 567/3/1 568/4/1
f 569/1/2 570/2/2 571/3/2
f 569/1/2 571/3/2 572/4/2
f 573/1/2 574/2/2 575/3/2
f 573/1/2 575/3/2 576/4/2
f 577/1/2 578/2/2 579/3/2
f 577/1/2 579/3/2 580/4/2
f 581/1/2 582/2/2 583/3/2
f 581/1/2 583/3/2 584/4/2
