o phone-jail-panels
v -0.114100000 0.000900000 0.069100000
v 0.114100000 0.000900000 0.069100000
v 0.114100000 0.109100000 0.069100000
v -0.114100000 0.109100000 0.069100000
v 0.114100000 0.000900000 -0.069100000
v -0.114100000 0.000900000 -0.069100000
v -0.114100000 0.109100000 -0.069100000
v 0.114100000 0.109100000 -0.069100000
vt 0.000000000 0.000000000
vt 1.000000000 0.000000000
vt 1.000000000 1.000000000
vt 0.000000000 1.000000000
vn 0.000000000 0.000000000 1.000000000
vn 0.000000000 0.000000000 -1.000000000
vn 1.000000000 0.000000000 0.000000000
vn -1.000000000 0.000000000 0.000000000
vn -0.000000000 1.000000000 0.000000000
vn 0.000000000 -1.000000000 0.000000000
g front
f 1/1/1 2/2/1 3/3/1
f 1/1/1 3/3/1 4/4/1
g back
f 5/1/2 6/2/2 7/3/2
f 5/1/2 7/3/2 8/4/2
g right
f 2/1/3 5/2/3 8/3/3
f 2/1/3 8/3/3 3/4/3
g left
f 6/1/4 1/2/4 4/3/4
f 6/1/4 4/3/4 7/4/4
g ceiling
f 4/1/5 3/2/5 8/3/5
f 4/1/5 8/3/5 7/4/5
g floor
f 6/1/6 5/2/6 2/3/6
f 6/1/6 2/3/6 1/4/6
