o phone-jail-edge-glow
v -0.110000000 0.000850000 -0.071050000
v 0.110000000 0.000850000 -0.071050000
v 0.110000000 0.000850000 -0.067250000
v -0.110000000 0.000850000 -0.067250000
v -0.110000000 0.000000000 -0.069150000
v 0.110000000 0.000000000 -0.069150000
v 0.110000000 0.003800000 -0.069150000
v -0.110000000 0.003800000 -0.069150000
v -0.110000000 0.000850000 0.067250000
v 0.110000000 0.000850000 0.067250000
v 0.110000000 0.000850000 0.071050000
v -0.110000000 0.000850000 0.071050000
v -0.110000000 0.000000000 0.069150000
v 0.110000000 0.000000000 0.069150000
v 0.110000000 0.003800000 0.069150000
v -0.110000000 0.003800000 0.069150000
v -0.116050000 0.000850000 -0.065000000
v -0.116050000 0.000850000 0.065000000
v -0.112250000 0.000850000 0.065000000
v -0.112250000 0.000850000 -0.065000000
v -0.114150000 0.000000000 -0.065000000
v -0.114150000 0.000000000 0.065000000
v -0.114150000 0.003800000 0.065000000
v -0.114150000 0.003800000 -0.065000000
v 0.112250000 0.000850000 -0.065000000
v 0.112250000 0.000850000 0.065000000
v 0.116050000 0.000850000 0.065000000
v 0.116050000 0.000850000 -0.065000000
v 0.114150000 0.000000000 -0.065000000
v 0.114150000 0.000000000 0.065000000
v 0.114150000 0.003800000 0.065000000
v 0.114150000 0.003800000 -0.065000000
v -0.110000000 0.109150000 -0.071050000
v 0.110000000 0.109150000 -0.071050000
v 0.110000000 0.109150000 -0.067250000
v -0.110000000 0.109150000 -0.067250000
v -0.110000000 0.106200000 -0.069150000
v 0.110000000 0.106200000 -0.069150000
v 0.110000000 0.110000000 -0.069150000
v -0.110000000 0.110000000 -0.069150000
v -0.110000000 0.109150000 0.067250000
v 0.110000000 0.109150000 0.067250000
v 0.110000000 0.109150000 0.071050000
v -0.110000000 0.109150000 0.071050000
v -0.110000000 0.106200000 0.069150000
v 0.110000000 0.106200000 0.069150000
v 0.110000000 0.110000000 0.069150000
v -0.110000000 0.110000000 0.069150000
v -0.116050000 0.109150000 -0.065000000
v -0.116050000 0.109150000 0.065000000
v -0.112250000 0.109150000 0.065000000
v -0.112250000 0.109150000 -0.065000000
v -0.114150000 0.106200000 -0.065000000
v -0.114150000 0.106200000 0.065000000
v -0.114150000 0.110000000 0.065000000
v -0.114150000 0.110000000 -0.065000000
v 0.112250000 0.109150000 -0.065000000
v 0.112250000 0.109150000 0.065000000
v 0.116050000 0.109150000 0.065000000
v 0.116050000 0.109150000 -0.065000000
v 0.114150000 0.106200000 -0.065000000
v 0.114150000 0.106200000 0.065000000
v 0.114150000 0.110000000 0.065000000
v 0.114150000 0.110000000 -0.065000000
v -0.115050000 0.002000000 -0.068150000
v -0.115050000 0.108000000 -0.068150000
v -0.111250000 0.108000000 -0.068150000
v -0.111250000 0.002000000 -0.068150000
v -0.113150000 0.002000000 -0.070050000
v -0.113150000 0.108000000 -0.070050000
v -0.113150000 0.108000000 -0.066250000
v -0.113150000 0.002000000 -0.066250000
v -0.115050000 0.002000000 0.068150000
v -0.115050000 0.108000000 0.068150000
v -0.111250000 0.108000000 0.068150000
v -0.111250000 0.002000000 0.068150000
v -0.113150000 0.002000000 0.066250000
v -0.113150000 0.108000000 0.066250000
v -0.113150000 0.108000000 0.070050000
v -0.113150000 0.002000000 0.070050000
v 0.111250000 0.002000000 -0.068150000
v 0.111250000 0.108000000 -0.068150000
v 0.115050000 0.108000000 -0.068150000
v 0.115050000 0.002000000 -0.068150000
v 0.113150000 0.002000000 -0.070050000
v 0.113150000 0.108000000 -0.070050000
v 0.113150000 0.108000000 -0.066250000
v 0.113150000 0.002000000 -0.066250000
v 0.111250000 0.002000000 0.068150000
v 0.111250000 0.108000000 0.068150000
v 0.115050000 0.108000000 0.068150000
v 0.115050000 0.002000000 0.068150000
v 0.113150000 0.002000000 0.066250000
v 0.113150000 0.108000000 0.066250000
v 0.113150000 0.108000000 0.070050000
v 0.113150000 0.002000000 0.070050000
vt 0.000000000 0.000000000
vt 0.000000000 1.000000000
vt 1.000000000 1.000000000
vt 1.000000000 0.000000000
vn 0.000000000 -1.000000000 0.000000000
vn 0.000000000 0.000000000 1.000000000
vn 0.000000000 1.000000000 0.000000000
vn -1.000000000 0.000000000 0.000000000
vn 0.000000000 0.000000000 -1.000000000
vn 1.000000000 0.000000000 0.000000000
g phone-jail-edge-glow
f 1/1/1 2/2/1 3/3/1
f 1/1/1 3/3/1 4/4/1
f 5/1/2 6/2/2 7/3/2
f 5/1/2 7/3/2 8/4/2
f 9/1/1 10/2/1 11/3/1
f 9/1/1 11/3/1 12/4/1
f 13/1/2 14/2/2 15/3/2
f 13/1/2 15/3/2 16/4/2
f 17/1/3 18/2/3 19/3/3
f 17/1/3 19/3/3 20/4/3
f 21/1/4 22/2/4 23/3/4
f 21/1/4 23/3/4 24/4/4
f 25/1/3 26/2/3 27/3/3
f 25/1/3 27/3/3 28/4/3
f 29/1/4 30/2/4 31/3/4
f 29/1/4 31/3/4 32/4/4
f 33/1/1 34/2/1 35/3/1
f 33/1/1 35/3/1 36/4/1
f 37/1/2 38/2/2 39/3/2
f 37/1/2 39/3/2 40/4/2
f 41/1/1 42/2/1 43/3/1
f 41/1/1 43/3/1 44/4/1
f 45/1/2 46/2/2 47/3/2
f 45/1/2 47/3/2 48/4/2
f 49/1/3 50/2/3 51/3/3
f 49/1/3 51/3/3 52/4/3
f 53/1/4 54/2/4 55/3/4
f 53/1/4 55/3/4 56/4/4
f 57/1/3 58/2/3 59/3/3
f 57/1/3 59/3/3 60/4/3
f 61/1/4 62/2/4 63/3/4
f 61/1/4 63/3/4 64/4/4
f 65/1/5 66/2/5 67/3/5
f 65/1/5 67/3/5 68/4/5
f 69/1/6 70/2/6 71/3/6
f 69/1/6 71/3/6 72/4/6
f 73/1/5 74/2/5 75/3/5
f 73/1/5 75/3/5 76/4/5
f 77/1/6 78/2/6 79/3/6
f 77/1/6 79/3/6 80/4/6
f 81/1/5 82/2/5 83/3/5
f 81/1/5 83/3/5 84/4/5
f 85/1/6 86/2/6 87/3/6
f 85/1/6 87/3/6 88/4/6
f 89/1/5 90/2/5 91/3/5
f 89/1/5 91/3/5 92/4/5
f 93/1/6 94/2/6 95/3/6
f 93/1/6 95/3/6 96/4/6
