o phone-jail-guides
v -0.103000000 0.001000000 -0.077700000
v -0.103000000 0.000505025 -0.077494975
v -0.119077198 0.000505025 -0.077488918
v -0.119109174 0.001000000 -0.077691434
v -0.103000000 0.000300000 -0.077000000
v -0.119000000 0.000300000 -0.077000000
v -0.103000000 0.000505025 -0.076505025
v -0.118922802 0.000505025 -0.076511082
v -0.103000000 0.001000000 -0.076300000
v -0.118890826 0.001000000 -0.076308566
v -0.103000000 0.001494975 -0.076505025
v -0.118922802 0.001494975 -0.076511082
v -0.103000000 0.001700000 -0.077000000
v -0.119000000 0.001700000 -0.077000000
v -0.103000000 0.001494975 -0.077494975
v -0.119077198 0.001494975 -0.077488918
v -0.122488918 0.000505025 -0.074077198
v -0.122691434 0.001000000 -0.074109174
v -0.122000000 0.000300000 -0.074000000
v -0.121511082 0.000505025 -0.073922802
v -0.121308566 0.001000000 -0.073890826
v -0.121511082 0.001494975 -0.073922802
v -0.122000000 0.001700000 -0.074000000
v -0.122488918 0.001494975 -0.074077198
v -0.122494975 0.000505025 -0.058000000
v -0.122700000 0.001000000 -0.058000000
v -0.122000000 0.000300000 -0.058000000
v -0.121505025 0.000505025 -0.058000000
v -0.121300000 0.001000000 -0.058000000
v -0.121505025 0.001494975 -0.058000000
v -0.122000000 0.001700000 -0.058000000
v -0.122494975 0.001494975 -0.058000000
v -0.103000000 0.001000000 -0.077000000
v -0.122000000 0.001000000 -0.058000000
v -0.103000000 0.001000000 0.076300000
v -0.103000000 0.000505025 0.076505025
v -0.118922802 0.000505025 0.076511082
v -0.118890826 0.001000000 0.076308566
v -0.103000000 0.000300000 0.077000000
v -0.119000000 0.000300000 0.077000000
v -0.103000000 0.000505025 0.077494975
v -0.119077198 0.000505025 0.077488918
v -0.103000000 0.001000000 0.077700000
v -0.119109174 0.001000000 0.077691434
v -0.103000000 0.001494975 0.077494975
v -0.119077198 0.001494975 0.077488918
v -0.103000000 0.001700000 0.077000000
v -0.119000000 0.001700000 0.077000000
v -0.103000000 0.001494975 0.076505025
v -0.118922802 0.001494975 0.076511082
v -0.121511082 0.000505025 0.073922802
v -0.121308566 0.001000000 0.073890826
v -0.122000000 0.000300000 0.074000000
v -0.122488918 0.000505025 0.074077198
v -0.122691434 0.001000000 0.074109174
v -0.122488918 0.001494975 0.074077198
v -0.122000000 0.001700000 0.074000000
v -0.121511082 0.001494975 0.073922802
v -0.121505025 0.000505025 0.058000000
v -0.121300000 0.001000000 0.058000000
v -0.122000000 0.000300000 0.058000000
v -0.122494975 0.000505025 0.058000000
v -0.122700000 0.001000000 0.058000000
v -0.122494975 0.001494975 0.058000000
v -0.122000000 0.001700000 0.058000000
v -0.121505025 0.001494975 0.058000000
v -0.103000000 0.001000000 0.077000000
v -0.122000000 0.001000000 0.058000000
v 0.103000000 0.001000000 -0.076300000
v 0.103000000 0.000505025 -0.076505025
v 0.118922802 0.000505025 -0.076511082
v 0.118890826 0.001000000 -0.076308566
v 0.103000000 0.000300000 -0.077000000
v 0.119000000 0.000300000 -0.077000000
v 0.103000000 0.000505025 -0.077494975
v 0.119077198 0.000505025 -0.077488918
v 0.103000000 0.001000000 -0.077700000
v 0.119109174 0.001000000 -0.077691434
v 0.103000000 0.001494975 -0.077494975
v 0.119077198 0.001494975 -0.077488918
v 0.103000000 0.001700000 -0.077000000
v 0.119000000 0.001700000 -0.077000000
v 0.103000000 0.001494975 -0.076505025
v 0.118922802 0.001494975 -0.076511082
v 0.121511082 0.000505025 -0.073922802
v 0.121308566 0.001000000 -0.073890826
v 0.122000000 0.000300000 -0.074000000
v 0.122488918 0.000505025 -0.074077198
v 0.122691434 0.001000000 -0.074109174
v 0.122488918 0.001494975 -0.074077198
v 0.122000000 0.001700000 -0.074000000
v 0.121511082 0.001494975 -0.073922802
v 0.121505025 0.000505025 -0.058000000
v 0.121300000 0.001000000 -0.058000000
v 0.122000000 0.000300000 -0.058000000
v 0.122494975 0.000505025 -0.058000000
v 0.122700000 0.001000000 -0.058000000
v 0.122494975 0.001494975 -0.058000000
v 0.122000000 0.001700000 -0.058000000
v 0.121505025 0.001494975 -0.058000000
v 0.103000000 0.001000000 -0.077000000
v 0.122000000 0.001000000 -0.058000000
v 0.103000000 0.001000000 0.077700000
v 0.103000000 0.000505025 0.077494975
v 0.119077198 0.000505025 0.077488918
v 0.119109174 0.001000000 0.077691434
v 0.103000000 0.000300000 0.077000000
v 0.119000000 0.000300000 0.077000000
v 0.103000000 0.000505025 0.076505025
v 0.118922802 0.000505025 0.076511082
v 0.103000000 0.001000000 0.076300000
v 0.118890826 0.001000000 0.076308566
v 0.103000000 0.001494975 0.076505025
v 0.118922802 0.001494975 0.076511082
v 0.103000000 0.001700000 0.077000000
v 0.119000000 0.001700000 0.077000000
v 0.103000000 0.001494975 0.077494975
v 0.119077198 0.001494975 0.077488918
v 0.122488918 0.000505025 0.074077198
v 0.122691434 0.001000000 0.074109174
v 0.122000000 0.000300000 0.074000000
v 0.121511082 0.000505025 0.073922802
v 0.121308566 0.001000000 0.073890826
v 0.121511082 0.001494975 0.073922802
v 0.122000000 0.001700000 0.074000000
v 0.122488918 0.001494975 0.074077198
v 0.122494975 0.000505025 0.058000000
v 0.122700000 0.001000000 0.058000000
v 0.122000000 0.000300000 0.058000000
v 0.121505025 0.000505025 0.058000000
v 0.121300000 0.001000000 0.058000000
v 0.121505025 0.001494975 0.058000000
v 0.122000000 0.001700000 0.058000000
v 0.122494975 0.001494975 0.058000000
v 0.103000000 0.001000000 0.077000000
v 0.122000000 0.001000000 0.058000000
vt 0.000000000 0.000000000
vt 0.125000000 0.000000000
vt 0.125000000 0.250000000
vt 0.000000000 0.250000000
vt 0.250000000 0.000000000
vt 0.250000000 0.250000000
vt 0.375000000 0.000000000
vt 0.375000000 0.250000000
vt 0.500000000 0.000000000
vt 0.500000000 0.250000000
vt 0.625000000 0.000000000
vt 0.625000000 0.250000000
vt 0.750000000 0.000000000
vt 0.750000000 0.250000000
vt 0.875000000 0.000000000
vt 0.875000000 0.250000000
vt 1.000000000 0.000000000
vt 1.000000000 0.250000000
vt 0.125000000 0.500000000
vt 0.000000000 0.500000000
vt 0.250000000 0.500000000
vt 0.375000000 0.500000000
vt 0.500000000 0.500000000
vt 0.625000000 0.500000000
vt 0.750000000 0.500000000
vt 0.875000000 0.500000000
vt 1.000000000 0.500000000
vt 0.125000000 0.750000000
vt 0.000000000 0.750000000
vt 0.250000000 0.750000000
vt 0.375000000 0.750000000
vt 0.500000000 0.750000000
vt 0.625000000 0.750000000
vt 0.750000000 0.750000000
vt 0.875000000 0.750000000
vt 1.000000000 0.750000000
vt 0.052173913 0.009090909
vt 0.052173913 0.004591139
vt 0.052173913 0.002727273
vt 0.052173913 0.013590680
vt 0.052173913 0.015454545
vt -0.030434783 0.009090909
vt -0.033478261 0.009090909
vt -0.032586847 0.004591139
vt -0.030434783 0.002727273
vt -0.028282718 0.004591139
vt -0.027391304 0.009090909
vt -0.028282718 0.013590680
vt -0.030434783 0.015454545
vt -0.032586847 0.013590680
vt 0.947826087 0.009090909
vt 0.947826087 0.004591139
vt 0.947826087 0.002727273
vt 0.947826087 0.013590680
vt 0.947826087 0.015454545
vt 1.030434783 0.009090909
vt 1.027391304 0.009090909
vt 1.028282718 0.004591139
vt 1.030434783 0.002727273
vt 1.032586847 0.004591139
vt 1.033478261 0.009090909
vt 1.032586847 0.013590680
vt 1.030434783 0.015454545
vt 1.028282718 0.013590680
vn -0.000348068 -0.382683409 -0.923879477
vn -0.000492137 -0.378702774 -0.925518215
vn 0.000000000 -0.923879533 -0.382683432
vn -0.000145688 -0.922205777 -0.386699473
vn -0.000145573 -0.923879523 0.382683428
vn 0.000000000 -0.922197584 0.386719041
vn -0.000498016 -0.382683385 0.923879418
vn -0.000352074 -0.378656079 0.925537384
vn -0.000351443 0.382683409 0.923879475
vn -0.000498911 0.378647929 0.925540651
vn 0.000000000 0.923879533 0.382683432
vn -0.000147115 0.922189290 0.386738791
vn -0.000144175 0.923879523 -0.382683428
vn 0.000000000 0.922197584 -0.386719041
vn -0.000491265 0.382683386 -0.923879421
vn -0.000348687 0.378694858 -0.925521519
vn -0.670486527 -0.317640732 -0.670486527
vn -0.322342368 -0.890051007 -0.322342368
vn 0.322342368 -0.890051007 0.322342368
vn 0.670486527 -0.317640732 0.670486527
vn 0.670486527 0.317640732 0.670486527
vn 0.322342368 0.890051007 0.322342368
vn -0.322342368 0.890051007 -0.322342368
vn -0.670486527 0.317640732 -0.670486527
vn -0.925521519 -0.378694858 -0.000348687
vn -0.923879421 -0.382683386 -0.000491265
vn -0.386719041 -0.922197584 0.000000000
vn -0.382683428 -0.923879523 -0.000144175
vn 0.386738791 -0.922189290 -0.000147115
vn 0.382683432 -0.923879533 0.000000000
vn 0.925540651 -0.378647929 -0.000498911
vn 0.923879475 -0.382683409 -0.000351443
vn 0.925537384 0.378656079 -0.000352074
vn 0.923879418 0.382683385 -0.000498016
vn 0.386719041 0.922197584 0.000000000
vn 0.382683428 0.923879523 -0.000145573
vn -0.386699473 0.922205777 -0.000145688
vn -0.382683432 0.923879533 0.000000000
vn -0.925518215 0.378702774 -0.000492137
vn -0.923879477 0.382683409 -0.000348068
vn 1.000000000 0.000000000 0.000000000
vn 0.000000000 0.000000000 1.000000000
vn -0.000351443 -0.382683409 -0.923879475
vn -0.000498911 -0.378647929 -0.925540651
vn -0.000147115 -0.922189290 -0.386738791
vn -0.000144175 -0.923879523 0.382683428
vn -0.000491265 -0.382683386 0.923879421
vn -0.000348687 -0.378694858 0.925521519
vn -0.000348068 0.382683409 0.923879477
vn -0.000492137 0.378702774 0.925518215
vn -0.000145688 0.922205777 0.386699473
vn -0.000145573 0.923879523 -0.382683428
vn -0.000498016 0.382683385 -0.923879418
vn -0.000352074 0.378656079 -0.925537384
vn 0.670486527 -0.317640732 -0.670486527
vn 0.322342368 -0.890051007 -0.322342368
vn -0.322342368 -0.890051007 0.322342368
vn -0.670486527 -0.317640732 0.670486527
vn -0.670486527 0.317640732 0.670486527
vn -0.322342368 0.890051007 0.322342368
vn 0.322342368 0.890051007 -0.322342368
vn 0.670486527 0.317640732 -0.670486527
vn 0.925537384 -0.378656079 0.000352074
vn 0.923879418 -0.382683385 0.000498016
vn 0.386719041 -0.922197584 0.000000000
vn 0.382683428 -0.923879523 0.000145573
vn -0.386699473 -0.922205777 0.000145688
vn -0.382683432 -0.923879533 -0.000000000
vn -0.925518215 -0.378702774 0.000492137
vn -0.923879477 -0.382683409 0.000348068
vn -0.925521519 0.378694858 0.000348687
vn -0.923879421 0.382683386 0.000491265
vn -0.386719041 0.922197584 0.000000000
vn -0.382683428 0.923879523 0.000144175
vn 0.386738791 0.922189290 0.000147115
vn 0.382683432 0.923879533 0.000000000
vn 0.925540651 0.378647929 0.000498911
vn 0.923879475 0.382683409 0.000351443
vn 0.000000000 0.000000000 -1.000000000
vn 0.000351443 -0.382683409 0.923879475
vn 0.000498911 -0.378647929 0.925540651
vn 0.000000000 -0.923879533 0.382683432
vn 0.000147115 -0.922189290 0.386738791
vn 0.000144175 -0.923879523 -0.382683428
vn 0.000000000 -0.922197584 -0.386719041
vn 0.000491265 -0.382683386 -0.923879421
vn 0.000348687 -0.378694858 -0.925521519
vn 0.000348068 0.382683409 -0.923879477
vn 0.000492137 0.378702774 -0.925518215
vn 0.000000000 0.923879533 -0.382683432
vn 0.000145688 0.922205777 -0.386699473
vn 0.000145573 0.923879523 0.382683428
vn -0.000000000 0.922197584 0.386719041
vn 0.000498016 0.382683385 0.923879418
vn 0.000352074 0.378656079 0.925537384
vn -0.925537384 -0.378656079 -0.000352074
vn -0.923879418 -0.382683385 -0.000498016
vn -0.382683428 -0.923879523 -0.000145573
vn 0.386699473 -0.922205777 -0.000145688
vn 0.925518215 -0.378702774 -0.000492137
vn 0.923879477 -0.382683409 -0.000348068
vn 0.925521519 0.378694858 -0.000348687
vn 0.923879421 0.382683386 -0.000491265
vn 0.382683428 0.923879523 -0.000144175
vn -0.386738791 0.922189290 -0.000147115
vn -0.925540651 0.378647929 -0.000498911
vn -0.923879475 0.382683409 -0.000351443
vn -1.000000000 0.000000000 0.000000000
vn 0.000348068 -0.382683409 0.923879477
vn 0.000492137 -0.378702774 0.925518215
vn 0.000145688 -0.922205777 0.386699473
vn 0.000145573 -0.923879523 -0.382683428
vn 0.000498016 -0.382683385 -0.923879418
vn 0.000352074 -0.378656079 -0.925537384
vn 0.000351443 0.382683409 -0.923879475
vn 0.000498911 0.378647929 -0.925540651
vn 0.000147115 0.922189290 -0.386738791
vn 0.000144175 0.923879523 0.382683428
vn 0.000491265 0.382683386 0.923879421
vn 0.000348687 0.378694858 0.925521519
vn 0.925521519 -0.378694858 0.000348687
vn 0.923879421 -0.382683386 0.000491265
vn 0.382683428 -0.923879523 0.000144175
vn -0.386738791 -0.922189290 0.000147115
vn -0.925540651 -0.378647929 0.000498911
vn -0.923879475 -0.382683409 0.000351443
vn -0.925537384 0.378656079 0.000352074
vn -0.923879418 0.382683385 0.000498016
vn -0.382683428 0.923879523 0.000145573
vn 0.386699473 0.922205777 0.000145688
vn 0.925518215 0.378702774 0.000492137
vn 0.923879477 0.382683409 0.000348068
g alignment_corner_-1_-1
f 1/1/1 2/2/1 3/3/1
f 1/1/2 3/3/2 4/4/2
f 2/2/3 5/5/3 6/6/3
f 2/2/4 6/6/4 3/3/4
f 5/5/5 7/7/5 8/8/5
f 5/5/6 8/8/6 6/6/6
f 7/7/7 9/9/7 10/10/7
f 7/7/8 10/10/8 8/8/8
f 9/9/9 11/11/9 12/12/9
f 9/9/10 12/12/10 10/10/10
f 11/11/11 13/13/11 14/14/11
f 11/11/12 14/14/12 12/12/12
f 13/13/13 15/15/13 16/16/13
f 13/13/14 16/16/14 14/14/14
f 15/15/15 1/17/15 4/18/15
f 15/15/16 4/18/16 16/16/16
f 4/4/17 3/3/17 17/19/17
f 4/4/17 17/19/17 18/20/17
f 3/3/18 6/6/18 19/21/18
f 3/3/18 19/21/18 17/19/18
f 6/6/19 8/8/19 20/22/19
f 6/6/19 20/22/19 19/21/19
f 8/8/20 10/10/20 21/23/20
f 8/8/20 21/23/20 20/22/20
f 10/10/21 12/12/21 22/24/21
f 10/10/21 22/24/21 21/23/21
f 12/12/22 14/14/22 23/25/22
f 12/12/22 23/25/22 22/24/22
f 14/14/23 16/16/23 24/26/23
f 14/14/23 24/26/23 23/25/23
f 16/16/24 4/18/24 18/27/24
f 16/16/24 18/27/24 24/26/24
f 18/20/25 17/19/25 25/28/25
f 18/20/26 25/28/26 26/29/26
f 17/19/27 19/21/27 27/30/27
f 17/19/28 27/30/28 25/28/28
f 19/21/29 20/22/29 28/31/29
f 19/21/30 28/31/30 27/30/30
f 20/22/31 21/23/31 29/32/31
f 20/22/32 29/32/32 28/31/32
f 21/23/33 22/24/33 30/33/33
f 21/23/34 30/33/34 29/32/34
f 22/24/35 23/25/35 31/34/35
f 22/24/36 31/34/36 30/33/36
f 23/25/37 24/26/37 32/35/37
f 23/25/38 32/35/38 31/34/38
f 24/26/39 18/27/39 26/36/39
f 24/26/40 26/36/40 32/35/40
f 33/37/41 2/38/41 1/37/41
f 33/37/41 5/39/41 2/38/41
f 33/37/41 7/38/41 5/39/41
f 33/37/41 9/37/41 7/38/41
f 33/37/41 11/40/41 9/37/41
f 33/37/41 13/41/41 11/40/41
f 33/37/41 15/40/41 13/41/41
f 33/37/41 1/37/41 15/40/41
f 34/42/42 26/43/42 25/44/42
f 34/42/42 25/44/42 27/45/42
f 34/42/42 27/45/42 28/46/42
f 34/42/42 28/46/42 29/47/42
f 34/42/42 29/47/42 30/48/42
f 34/42/42 30/48/42 31/49/42
f 34/42/42 31/49/42 32/50/42
f 34/42/42 32/50/42 26/43/42
g alignment_corner_-1_1
f 35/1/43 36/2/43 37/3/43
f 35/1/44 37/3/44 38/4/44
f 36/2/3 39/5/3 40/6/3
f 36/2/45 40/6/45 37/3/45
f 39/5/46 41/7/46 42/8/46
f 39/5/6 42/8/6 40/6/6
f 41/7/47 43/9/47 44/10/47
f 41/7/48 44/10/48 42/8/48
f 43/9/49 45/11/49 46/12/49
f 43/9/50 46/12/50 44/10/50
f 45/11/11 47/13/11 48/14/11
f 45/11/51 48/14/51 46/12/51
f 47/13/52 49/15/52 50/16/52
f 47/13/14 50/16/14 48/14/14
f 49/15/53 35/17/53 38/18/53
f 49/15/54 38/18/54 50/16/54
f 38/4/55 37/3/55 51/19/55
f 38/4/55 51/19/55 52/20/55
f 37/3/56 40/6/56 53/21/56
f 37/3/56 53/21/56 51/19/56
f 40/6/57 42/8/57 54/22/57
f 40/6/57 54/22/57 53/21/57
f 42/8/58 44/10/58 55/23/58
f 42/8/58 55/23/58 54/22/58
f 44/10/59 46/12/59 56/24/59
f 44/10/59 56/24/59 55/23/59
f 46/12/60 48/14/60 57/25/60
f 46/12/60 57/25/60 56/24/60
f 48/14/61 50/16/61 58/26/61
f 48/14/61 58/26/61 57/25/61
f 50/16/62 38/18/62 52/27/62
f 50/16/62 52/27/62 58/26/62
f 52/20/63 51/19/63 59/28/63
f 52/20/64 59/28/64 60/29/64
f 51/19/65 53/21/65 61/30/65
f 51/19/66 61/30/66 59/28/66
f 53/21/67 54/22/67 62/31/67
f 53/21/68 62/31/68 61/30/68
f 54/22/69 55/23/69 63/32/69
f 54/22/70 63/32/70 62/31/70
f 55/23/71 56/24/71 64/33/71
f 55/23/72 64/33/72 63/32/72
f 56/24/73 57/25/73 65/34/73
f 56/24/74 65/34/74 64/33/74
f 57/25/75 58/26/75 66/35/75
f 57/25/76 66/35/76 65/34/76
f 58/26/77 52/27/77 60/36/77
f 58/26/78 60/36/78 66/35/78
f 67/37/41 36/38/41 35/37/41
f 67/37/41 39/39/41 36/38/41
f 67/37/41 41/38/41 39/39/41
f 67/37/41 43/37/41 41/38/41
f 67/37/41 45/40/41 43/37/41
f 67/37/41 47/41/41 45/40/41
f 67/37/41 49/40/41 47/41/41
f 67/37/41 35/37/41 49/40/41
f 68/42/79 60/47/79 59/46/79
f 68/42/79 59/46/79 61/45/79
f 68/42/79 61/45/79 62/44/79
f 68/42/79 62/44/79 63/43/79
f 68/42/79 63/43/79 64/50/79
f 68/42/79 64/50/79 65/49/79
f 68/42/79 65/49/79 66/48/79
f 68/42/79 66/48/79 60/47/79
g alignment_corner_1_-1
f 69/1/80 70/2/80 71/3/80
f 69/1/81 71/3/81 72/4/81
f 70/2/82 73/5/82 74/6/82
f 70/2/83 74/6/83 71/3/83
f 73/5/84 75/7/84 76/8/84
f 73/5/85 76/8/85 74/6/85
f 75/7/86 77/9/86 78/10/86
f 75/7/87 78/10/87 76/8/87
f 77/9/88 79/11/88 80/12/88
f 77/9/89 80/12/89 78/10/89
f 79/11/90 81/13/90 82/14/90
f 79/11/91 82/14/91 80/12/91
f 81/13/92 83/15/92 84/16/92
f 81/13/93 84/16/93 82/14/93
f 83/15/94 69/17/94 72/18/94
f 83/15/95 72/18/95 84/16/95
f 72/4/58 71/3/58 85/19/58
f 72/4/58 85/19/58 86/20/58
f 71/3/57 74/6/57 87/21/57
f 71/3/57 87/21/57 85/19/57
f 74/6/56 76/8/56 88/22/56
f 74/6/56 88/22/56 87/21/56
f 76/8/55 78/10/55 89/23/55
f 76/8/55 89/23/55 88/22/55
f 78/10/62 80/12/62 90/24/62
f 78/10/62 90/24/62 89/23/62
f 80/12/61 82/14/61 91/25/61
f 80/12/61 91/25/61 90/24/61
f 82/14/60 84/16/60 92/26/60
f 82/14/60 92/26/60 91/25/60
f 84/16/59 72/18/59 86/27/59
f 84/16/59 86/27/59 92/26/59
f 86/20/96 85/19/96 93/28/96
f 86/20/97 93/28/97 94/29/97
f 85/19/27 87/21/27 95/30/27
f 85/19/98 95/30/98 93/28/98
f 87/21/99 88/22/99 96/31/99
f 87/21/30 96/31/30 95/30/30
f 88/22/100 89/23/100 97/32/100
f 88/22/101 97/32/101 96/31/101
f 89/23/102 90/24/102 98/33/102
f 89/23/103 98/33/103 97/32/103
f 90/24/35 91/25/35 99/34/35
f 90/24/104 99/34/104 98/33/104
f 91/25/105 92/26/105 100/35/105
f 91/25/38 100/35/38 99/34/38
f 92/26/106 86/27/106 94/36/106
f 92/26/107 94/36/107 100/35/107
f 101/51/108 70/52/108 69/51/108
f 101/51/108 73/53/108 70/52/108
f 101/51/108 75/52/108 73/53/108
f 101/51/108 77/51/108 75/52/108
f 101/51/108 79/54/108 77/51/108
f 101/51/108 81/55/108 79/54/108
f 101/51/108 83/54/108 81/55/108
f 101/51/108 69/51/108 83/54/108
f 102/56/42 94/57/42 93/58/42
f 102/56/42 93/58/42 95/59/42
f 102/56/42 95/59/42 96/60/42
f 102/56/42 96/60/42 97/61/42
f 102/56/42 97/61/42 98/62/42
f 102/56/42 98/62/42 99/63/42
f 102/56/42 99/63/42 100/64/42
f 102/56/42 100/64/42 94/57/42
g alignment_corner_1_1
f 103/1/109 104/2/109 105/3/109
f 103/1/110 105/3/110 106/4/110
f 104/2/82 107/5/82 108/6/82
f 104/2/111 108/6/111 105/3/111
f 107/5/112 109/7/112 110/8/112
f 107/5/85 110/8/85 108/6/85
f 109/7/113 111/9/113 112/10/113
f 109/7/114 112/10/114 110/8/114
f 111/9/115 113/11/115 114/12/115
f 111/9/116 114/12/116 112/10/116
f 113/11/90 115/13/90 116/14/90
f 113/11/117 116/14/117 114/12/117
f 115/13/118 117/15/118 118/16/118
f 115/13/93 118/16/93 116/14/93
f 117/15/119 103/17/119 106/18/119
f 117/15/120 106/18/120 118/16/120
f 106/4/20 105/3/20 119/19/20
f 106/4/20 119/19/20 120/20/20
f 105/3/19 108/6/19 121/21/19
f 105/3/19 121/21/19 119/19/19
f 108/6/18 110/8/18 122/22/18
f 108/6/18 122/22/18 121/21/18
f 110/8/17 112/10/17 123/23/17
f 110/8/17 123/23/17 122/22/17
f 112/10/24 114/12/24 124/24/24
f 112/10/24 124/24/24 123/23/24
f 114/12/23 116/14/23 125/25/23
f 114/12/23 125/25/23 124/24/23
f 116/14/22 118/16/22 126/26/22
f 116/14/22 126/26/22 125/25/22
f 118/16/21 106/18/21 120/27/21
f 118/16/21 120/27/21 126/26/21
f 120/20/121 119/19/121 127/28/121
f 120/20/122 127/28/122 128/29/122
f 119/19/65 121/21/65 129/30/65
f 119/19/123 129/30/123 127/28/123
f 121/21/124 122/22/124 130/31/124
f 121/21/68 130/31/68 129/30/68
f 122/22/125 123/23/125 131/32/125
f 122/22/126 131/32/126 130/31/126
f 123/23/127 124/24/127 132/33/127
f 123/23/128 132/33/128 131/32/128
f 124/24/73 125/25/73 133/34/73
f 124/24/129 133/34/129 132/33/129
f 125/25/130 126/26/130 134/35/130
f 125/25/76 134/35/76 133/34/76
f 126/26/131 120/27/131 128/36/131
f 126/26/132 128/36/132 134/35/132
f 135/51/108 104/52/108 103/51/108
f 135/51/108 107/53/108 104/52/108
f 135/51/108 109/52/108 107/53/108
f 135/51/108 111/51/108 109/52/108
f 135/51/108 113/54/108 111/51/108
f 135/51/108 115/55/108 113/54/108
f 135/51/108 117/54/108 115/55/108
f 135/51/108 103/51/108 117/54/108
f 136/56/79 128/61/79 127/60/79
f 136/56/79 127/60/79 129/59/79
f 136/56/79 129/59/79 130/58/79
f 136/56/79 130/58/79 131/57/79
f 136/56/79 131/57/79 132/64/79
f 136/56/79 132/64/79 133/63/79
f 136/56/79 133/63/79 134/62/79
f 136/56/79 134/62/79 128/61/79
